<?xml version="1.0" encoding="UTF-8"?>
<svg id="Calque_1" data-name="Calque 1" xmlns="http://www.w3.org/2000/svg" version="1.1" viewBox="0 0 1023.4 109.24">
  <defs>
    <style>
      .cls-1, .cls-2 {
        fill: #fff;
      }

      .cls-3 {
        fill: #7d41c2;
      }

      .cls-3, .cls-4, .cls-2 {
        stroke-width: 0px;
      }

      .cls-4 {
        fill: #a68cff;
      }
    </style>
  </defs>
  <g>
    <path class="cls-2" d="M287.7,74.48c-4.34-2.37-7.77-5.67-10.28-9.89-2.52-4.22-3.77-9.02-3.77-14.38s1.26-10.08,3.77-14.31c2.51-4.22,5.95-7.53,10.32-9.93,4.37-2.4,9.18-3.59,14.45-3.59,4.32,0,8.33.81,12.03,2.42,3.7,1.61,6.74,3.87,9.11,6.76l-3.99,2.35c-2.23-3.37-4.97-5.81-8.22-7.33-3.25-1.52-6.87-2.11-10.85-1.78-4.13.33-7.71,1.71-10.75,4.13-3.04,2.42-5.3,5.65-6.8,9.68-1.49,4.03-2.03,8.54-1.6,13.52.38,4.84,1.64,9.04,3.77,12.6,2.14,3.56,4.82,6.25,8.04,8.08,3.23,1.83,6.71,2.74,10.46,2.74,3.37,0,6.51-.63,9.43-1.89,2.92-1.26,5.56-3.1,7.94-5.52h3.84c-2.66,3.13-5.85,5.56-9.57,7.3-3.73,1.73-8.01,2.6-12.85,2.6-5.32,0-10.14-1.19-14.49-3.56Z"/>
    <path class="cls-2" d="M334.36,76.5c-2.14-1.02-3.8-2.42-4.98-4.2-1.19-1.78-1.78-3.78-1.78-6.01,0-2.42.57-4.4,1.71-5.94,1.14-1.54,2.51-2.73,4.13-3.56,1.61-.83,3.72-1.7,6.33-2.6,2.14-.76,3.8-1.42,4.98-1.99,1.19-.57,2.18-1.32,2.99-2.24.81-.93,1.21-2.08,1.21-3.45s-.49-2.48-1.46-3.31c-.97-.83-2.2-1.25-3.67-1.25-1.57,0-3.25.53-5.05,1.6-1.8,1.07-3.27,2.5-4.41,4.31l-3.2-2.06c2.32-2.13,4.67-3.61,7.05-4.41,2.37-.81,4.86-1.21,7.47-1.21,2.85,0,5.41.5,7.69,1.5,2.28,1,4.1,2.5,5.48,4.52,1.38,2.02,2.06,4.5,2.06,7.44v17.3c0,1.04.3,1.89.89,2.53.59.64,1.46.96,2.6.96v1.07l-10.75,1.42v-4.06c-1.19,1.66-2.84,2.94-4.95,3.84-2.11.9-4.5,1.35-7.15,1.35s-5.05-.51-7.19-1.53ZM336.21,70.63c.85,1.33,1.97,2.34,3.34,3.03,1.38.69,2.85,1.03,4.41,1.03,2.71,0,4.99-.75,6.87-2.24,1.87-1.5,2.81-3.62,2.81-6.37v-13.38c0-.38-.02-.66-.07-.85-.1-2.28-.53-4.08-1.32-5.41-.78-1.33-1.81-2.28-3.1-2.85.71.33,1.25.82,1.6,1.46.36.64.53,1.34.53,2.1,0,1.52-.33,2.79-1,3.81-.67,1.02-1.51,1.85-2.53,2.49-1.02.64-2.41,1.37-4.16,2.17-1.9.85-3.42,1.65-4.56,2.38-1.14.74-2.11,1.76-2.92,3.06-.81,1.31-1.21,2.91-1.21,4.8s.43,3.44,1.28,4.77Z"/>
    <path class="cls-2" d="M376.6,75.69c-1.68-.81-3.12-2.31-4.31-4.52-1.19-2.21-1.78-5.28-1.78-9.22v-18.79h-5.69v-1.85c1.85,0,3.5-.62,4.95-1.85,1.45-1.23,2.56-2.88,3.35-4.95.78-2.06,1.17-4.31,1.17-6.73h3.56v13.52h6.33v1.85h-6.33v22.07c0,3.42.51,5.83,1.53,7.22,1.02,1.4,2.29,2.1,3.81,2.1.76,0,1.53-.21,2.31-.64s1.48-1.16,2.1-2.21h3.84c-1.38,1.9-2.85,3.24-4.41,4.02-1.57.78-3.32,1.17-5.27,1.17-1.76,0-3.48-.4-5.16-1.21Z"/>
    <path class="cls-2" d="M399.7,76.5c-2.14-1.02-3.8-2.42-4.98-4.2-1.19-1.78-1.78-3.78-1.78-6.01,0-2.42.57-4.4,1.71-5.94,1.14-1.54,2.51-2.73,4.13-3.56,1.61-.83,3.72-1.7,6.33-2.6,2.14-.76,3.8-1.42,4.98-1.99,1.19-.57,2.18-1.32,2.99-2.24.81-.93,1.21-2.08,1.21-3.45s-.49-2.48-1.46-3.31c-.97-.83-2.2-1.25-3.67-1.25-1.57,0-3.25.53-5.05,1.6-1.8,1.07-3.27,2.5-4.41,4.31l-3.2-2.06c2.32-2.13,4.67-3.61,7.05-4.41,2.37-.81,4.86-1.21,7.47-1.21,2.85,0,5.41.5,7.69,1.5,2.28,1,4.1,2.5,5.48,4.52,1.38,2.02,2.06,4.5,2.06,7.44v17.3c0,1.04.3,1.89.89,2.53.59.64,1.46.96,2.6.96v1.07l-10.75,1.42v-4.06c-1.19,1.66-2.84,2.94-4.95,3.84-2.11.9-4.5,1.35-7.15,1.35s-5.05-.51-7.19-1.53ZM401.55,70.63c.85,1.33,1.97,2.34,3.34,3.03,1.38.69,2.85,1.03,4.41,1.03,2.71,0,4.99-.75,6.87-2.24,1.87-1.5,2.81-3.62,2.81-6.37v-13.38c0-.38-.02-.66-.07-.85-.1-2.28-.53-4.08-1.32-5.41-.78-1.33-1.81-2.28-3.1-2.85.71.33,1.25.82,1.6,1.46.36.64.53,1.34.53,2.1,0,1.52-.33,2.79-1,3.81-.67,1.02-1.51,1.85-2.53,2.49-1.02.64-2.41,1.37-4.16,2.17-1.9.85-3.42,1.65-4.56,2.38-1.14.74-2.11,1.76-2.92,3.06-.81,1.31-1.21,2.91-1.21,4.8s.43,3.44,1.28,4.77Z"/>
    <path class="cls-2" d="M435.04,74.87c.59-.64.89-1.48.89-2.53V29.49c0-1.09-.32-1.94-.96-2.56-.64-.62-1.63-.93-2.95-.93v-1.07l11.17-1.42v48.83c0,1.04.3,1.89.89,2.53.59.64,1.46.96,2.6.96v1.07h-14.24v-1.07c1.14,0,2-.32,2.6-.96Z"/>
    <path class="cls-2" d="M459.13,75.83c-2.99-1.47-5.36-3.63-7.12-6.48-1.76-2.85-2.63-6.26-2.63-10.25s.88-7.33,2.63-10.18c1.75-2.85,4.14-5.02,7.15-6.51,3.01-1.5,6.32-2.24,9.93-2.24s6.99.75,10,2.24c3.01,1.5,5.4,3.67,7.15,6.51,1.75,2.85,2.63,6.24,2.63,10.18s-.88,7.4-2.63,10.25c-1.76,2.85-4.14,5.01-7.15,6.48-3.01,1.47-6.35,2.21-10,2.21s-6.98-.74-9.96-2.21ZM459.27,69c1.33,2.42,2.99,4.2,4.98,5.34,1.99,1.14,4.1,1.61,6.33,1.42,2.18-.14,4.16-.97,5.94-2.49s3.13-3.58,4.06-6.19c.92-2.61,1.22-5.62.89-9.04-.33-3.46-1.17-6.41-2.53-8.83-1.35-2.42-3.02-4.2-5.02-5.34s-4.08-1.61-6.26-1.42c-2.23.14-4.22.96-5.98,2.46-1.76,1.5-3.08,3.56-3.99,6.19s-1.21,5.66-.92,9.08c.33,3.46,1.16,6.41,2.49,8.83Z"/>
    <path class="cls-2" d="M499.91,97.22c-2.94-1.07-5.14-2.43-6.58-4.09-1.45-1.66-2.17-3.39-2.17-5.2,0-1.57.46-2.95,1.39-4.16.92-1.21,2.02-2.2,3.27-2.95,1.26-.76,2.34-1.26,3.24-1.5-2.94-.76-4.41-1.9-4.41-3.42,0-2.04,2.16-3.92,6.48-5.62-2.23-1.42-4-3.31-5.3-5.66-1.31-2.35-1.96-5.04-1.96-8.08,0-3.27.75-6.14,2.24-8.61,1.5-2.47,3.55-4.38,6.16-5.73,2.61-1.35,5.53-2.03,8.75-2.03,1.85,0,3.56.24,5.12.71l7.62-8.19,2.63,2.92-8.04,5.91c3.04,1.23,5.43,3.16,7.19,5.77,1.75,2.61,2.63,5.69,2.63,9.25,0,3.27-.75,6.15-2.24,8.61-1.5,2.47-3.54,4.38-6.12,5.73-2.59,1.35-5.52,2.03-8.79,2.03-2.71,0-5.27-.5-7.69-1.49-1.23.43-2.27.92-3.1,1.49-.83.57-1.25,1.16-1.25,1.78,0,1,.89,1.7,2.67,2.1,1.78.4,4.59.77,8.43,1.1,4.27.43,7.78.89,10.53,1.39,2.75.5,5.14,1.4,7.15,2.7,2.02,1.3,3.03,3.14,3.03,5.52,0,1.8-.8,3.58-2.38,5.34-1.59,1.75-3.92,3.19-6.98,4.31-3.06,1.11-6.65,1.67-10.78,1.67s-7.81-.53-10.75-1.6ZM499.66,91.88c.78,1.3,2.09,2.38,3.92,3.24,1.83.85,4.19,1.28,7.08,1.28,2.37,0,4.53-.37,6.48-1.1,1.95-.74,3.49-1.73,4.63-2.99,1.14-1.26,1.71-2.65,1.71-4.16,0-1.71-.76-3.06-2.28-4.06-1.52-1-3.38-1.72-5.59-2.17-2.21-.45-5.02-.87-8.43-1.25-1.57-.19-2.75-.36-3.56-.5-1.52.71-2.75,1.74-3.7,3.1s-1.42,2.83-1.42,4.45c0,1.47.39,2.86,1.17,4.16ZM503.19,64.9c1.04,2.02,2.35,3.5,3.92,4.45,1.57.95,3.3,1.33,5.2,1.14,1.85-.14,3.46-.82,4.84-2.03,1.38-1.21,2.38-2.91,3.02-5.09s.84-4.74.61-7.69c-.24-2.99-.87-5.49-1.89-7.51-1.02-2.02-2.31-3.5-3.88-4.45-1.57-.95-3.27-1.33-5.12-1.14-1.85.14-3.48.82-4.88,2.03-1.4,1.21-2.44,2.91-3.13,5.09-.69,2.18-.89,4.75-.61,7.69.24,2.99.88,5.49,1.92,7.51Z"/>
    <path class="cls-2" d="M542.37,76.54c-1.92-1-3.44-2.5-4.55-4.52-1.12-2.02-1.67-4.54-1.67-7.58v-17.58c0-1-.33-1.75-1-2.28-.67-.52-1.5-.78-2.49-.78v-1.07l10.82-1.42v23.13c0,3.61.71,6.24,2.14,7.9,1.42,1.66,3.32,2.52,5.69,2.56,1.61,0,3.12-.36,4.52-1.07,1.4-.71,2.51-1.72,3.34-3.03.83-1.3,1.25-2.88,1.25-4.73v-18.79c0-1.04-.29-1.89-.85-2.53s-1.45-.96-2.63-.96v-1.07l10.82-1.42v29.61c0,1.04.29,1.89.85,2.53s1.45.96,2.63.96v1.07l-10.82,1.42v-4.63c-1.04,1.8-2.56,3.22-4.56,4.24s-4.29,1.53-6.9,1.53c-2.47,0-4.66-.5-6.58-1.49Z"/>
    <path class="cls-2" d="M584.29,75.72c-3.11-1.54-5.61-3.74-7.51-6.58-1.9-2.85-2.85-6.19-2.85-10.04s.9-7.27,2.7-10.14c1.8-2.87,4.21-5.05,7.22-6.55,3.01-1.5,6.3-2.24,9.86-2.24,3.23,0,6.1.58,8.61,1.74,2.51,1.16,4.47,2.71,5.87,4.63,1.4,1.92,2.1,3.95,2.1,6.09s-.57,3.95-1.71,5.3-2.52,2.38-4.13,3.1c-1.61.71-3.7,1.45-6.26,2.21-2.18.67-3.88,1.25-5.09,1.74s-2.2,1.17-2.95,2.03-1.09,1.97-1,3.35c.05.95.36,1.89.93,2.81.57.92,1.33,1.68,2.28,2.28.95.59,1.99.89,3.13.89,1.95,0,3.77-.52,5.48-1.57,1.71-1.04,3.13-2.51,4.27-4.41l3.2,2.06c-1.85,1.8-3.93,3.19-6.23,4.16s-4.99,1.46-8.08,1.46c-3.46,0-6.75-.77-9.86-2.31ZM583.44,69c1.49,2.85,3.62,4.96,6.37,6.33-.85-.66-1.54-1.46-2.06-2.38-.52-.93-.83-1.84-.92-2.74-.19-1.57.04-2.87.68-3.92.64-1.04,1.48-1.89,2.53-2.53,1.04-.64,2.47-1.39,4.27-2.24,1.9-.85,3.42-1.64,4.55-2.35,1.14-.71,2.11-1.66,2.92-2.85.81-1.19,1.21-2.66,1.21-4.41,0-1.95-.47-3.67-1.42-5.16s-2.2-2.61-3.74-3.35c-1.54-.73-3.24-1.03-5.09-.89-2.52.24-4.64,1.12-6.37,2.63-1.73,1.52-3.04,3.48-3.92,5.87-.88,2.4-1.29,5-1.25,7.79,0,3.94.75,7.33,2.24,10.18Z"/>
    <path class="cls-2" d="M621.52,76.4c-2.4-1.09-4.38-2.66-5.94-4.7h3.84c1.04,1.23,2.37,2.21,3.99,2.92,1.61.71,3.2,1.07,4.77,1.07,2.28,0,4.2-.47,5.77-1.42,1.57-.95,2.35-2.3,2.35-4.06,0-1.33-.45-2.53-1.35-3.59-.9-1.07-2.02-2.03-3.35-2.88-1.33-.85-3.13-1.92-5.41-3.2-2.52-1.33-4.53-2.5-6.05-3.52-1.52-1.02-2.8-2.21-3.84-3.56-1.04-1.35-1.57-2.81-1.57-4.38,0-1.8.59-3.38,1.78-4.73,1.19-1.35,2.78-2.38,4.77-3.1,1.99-.71,4.17-1.07,6.55-1.07,1.76,0,3.4.2,4.95.61,1.54.4,2.96.97,4.27,1.71,1.3.74,2.62,1.65,3.95,2.74l-4.06,2.35c-1.33-1.9-2.68-3.3-4.06-4.2-1.38-.9-2.94-1.35-4.7-1.35-1.9,0-3.39.45-4.48,1.35-1.09.9-1.64,2.06-1.64,3.49,0,1.09.4,2.09,1.21,2.99.81.9,1.79,1.72,2.95,2.46,1.16.74,2.81,1.7,4.95,2.88,2.71,1.47,4.88,2.75,6.51,3.84,1.64,1.09,3.04,2.4,4.2,3.91,1.16,1.52,1.74,3.23,1.74,5.12,0,2.18-.68,4.02-2.03,5.52-1.35,1.49-3.08,2.61-5.2,3.34-2.11.74-4.33,1.1-6.66,1.1-3.08,0-5.83-.55-8.22-1.64Z"/>
  </g>
  <g>
    <polygon class="cls-2" points="218.33 108.02 191.73 1.53 85.26 28.13 105.22 108.02 218.33 108.02"/>
    <path class="cls-4" d="M142.39,92.96c-1.66,0-3.33-.63-4.6-1.9-2.54-2.54-2.54-6.65,0-9.19l19.73-19.73-19.73-19.73c-2.54-2.54-2.54-6.65,0-9.19s6.65-2.54,9.19,0l28.92,28.92-28.92,28.92c-1.27,1.27-2.93,1.9-4.6,1.9Z"/>
  </g>
  <path class="cls-2" d="M693.08,107.99h-4.02v-1h4.02v1ZM700.77,107.99h-4.02v-1h4.02v1ZM685.03,107.99h-4.02v-1h4.02v1ZM676.99,107.99h-4.02v-1h4.02v1ZM668.94,107.99h-4.02v-1h4.02v1ZM660.9,107.99h-4.02v-1h4.02v1ZM652.85,107.99h-4.02v-1h4.02v1ZM644.81,107.99h-4.02v-1h4.02v1ZM636.76,107.99h-4.02v-1h4.02v1ZM628.72,107.99h-4.02v-1h4.02v1ZM620.67,107.99h-4.02v-1h4.02v1ZM612.63,107.99h-4.02v-1h4.02v1ZM604.58,107.99h-4.02v-1h4.02v1ZM596.54,107.99h-4.02v-1h4.02v1ZM588.49,107.99h-4.02v-1h4.02v1ZM580.45,107.99h-4.02v-1h4.02v1ZM572.4,107.99h-4.02v-1h4.02v1ZM564.36,107.99h-4.02v-1h4.02v1ZM556.31,107.99h-4.02v-1h4.02v1ZM548.27,107.99h-4.02v-1h4.02v1ZM540.22,107.99h-4.02v-1h4.02v1ZM532.18,107.99h-4.02v-1h4.02v1ZM524.13,107.99h-4.02v-1h4.02v1ZM516.09,107.99h-4.02v-1h4.02v1ZM508.04,107.99h-4.02v-1h4.02v1ZM500,107.99h-4.02v-1h4.02v1ZM491.95,107.99h-4.02v-1h4.02v1ZM483.91,107.99h-4.02v-1h4.02v1ZM475.86,107.99h-4.02v-1h4.02v1ZM467.82,107.99h-4.02v-1h4.02v1ZM459.77,107.99h-4.02v-1h4.02v1ZM451.73,107.99h-4.02v-1h4.02v1ZM443.68,107.99h-4.02v-1h4.02v1ZM435.64,107.99h-4.02v-1h4.02v1ZM427.59,107.99h-4.02v-1h4.02v1ZM419.55,107.99h-4.02v-1h4.02v1ZM411.5,107.99h-4.02v-1h4.02v1ZM403.46,107.99h-4.02v-1h4.02v1ZM395.41,107.99h-4.02v-1h4.02v1ZM387.37,107.99h-4.02v-1h4.02v1ZM379.32,107.99h-4.02v-1h4.02v1ZM371.28,107.99h-4.02v-1h4.02v1ZM363.23,107.99h-4.02v-1h4.02v1ZM355.19,107.99h-4.02v-1h4.02v1ZM347.15,107.99h-4.02v-1h4.02v1ZM339.1,107.99h-4.02v-1h4.02v1ZM331.06,107.99h-4.02v-1h4.02v1ZM323.01,107.99h-4.02v-1h4.02v1ZM314.97,107.99h-4.02v-1h4.02v1ZM306.92,107.99h-4.02v-1h4.02v1ZM298.88,107.99h-4.02v-1h4.02v1ZM290.83,107.99h-4.02v-1h4.02v1ZM282.79,107.99h-4.02v-1h4.02v1ZM274.74,107.99h-4.02v-1h4.02v1ZM266.7,107.99h-4.02v-1h4.02v1ZM258.65,107.99h-4.02v-1h4.02v1ZM250.61,107.99h-4.02v-1h4.02v1ZM242.56,107.99h-4.02v-1h4.02v1ZM234.52,107.99h-4.02v-1h4.02v1ZM226.47,107.99h-4.02v-1h4.02v1ZM101.8,107.99h-4.02v-1h4.02v1ZM93.75,107.99h-4.02v-1h4.02v1ZM85.71,107.99h-4.02v-1h4.02v1ZM77.66,107.99h-4.02v-1h4.02v1ZM69.62,107.99h-4.02v-1h4.02v1ZM61.57,107.99h-4.02v-1h4.02v1ZM53.53,107.99h-4.02v-1h4.02v1ZM45.48,107.99h-4.02v-1h4.02v1ZM37.44,107.99h-4.02v-1h4.02v1ZM29.39,107.99h-4.02v-1h4.02v1ZM21.35,107.99h-4.02v-1h4.02v1ZM13.3,107.99h-4.02v-1h4.02v1ZM5.26,107.99H1.23v-1h4.02v1Z"/>
  <path class="cls-2" d="M1012.86,107.99h-3.92v-1h3.92v1ZM1020.29,107.99h-3.92v-1h3.92v1ZM1005.02,107.99h-3.92v-1h3.92v1ZM997.18,107.99h-3.92v-1h3.92v1ZM989.33,107.99h-3.92v-1h3.92v1ZM981.49,107.99h-3.92v-1h3.92v1ZM973.65,107.99h-3.92v-1h3.92v1ZM965.81,107.99h-3.92v-1h3.92v1ZM957.96,107.99h-3.92v-1h3.92v1ZM950.12,107.99h-3.92v-1h3.92v1ZM942.28,107.99h-3.92v-1h3.92v1ZM934.43,107.99h-3.92v-1h3.92v1ZM926.59,107.99h-3.92v-1h3.92v1ZM918.75,107.99h-3.92v-1h3.92v1ZM910.91,107.99h-3.92v-1h3.92v1ZM903.89,107.99h-3.92v-1h3.92v1Z"/>
  <g>
    <polygon class="cls-4" points="784.14 107.88 811.41 .44 917.87 27.03 897.25 107.88 784.14 107.88"/>
    <polygon class="cls-2" points="704.56 107.88 731.6 .44 838.06 27.03 817.67 107.88 704.56 107.88"/>
    <polygon class="cls-3" points="715.08 107.88 739.02 12.74 825.54 34.9 808.09 107.88 715.08 107.88"/>
    <path class="cls-1" d="M755.47,74.08c-1.58,1.88-4,5.37.36,6.11,9.31,1.56,27.75-12.1,31.99-11.39,3.22.54-9.32,9.15-9.62,10.98-.12.72,2.08.98,3.28.84,3.25-.39,13.87-9.62,17.31-9.04,1.41.24-3.75,6.42-4.66,7.7-.98,1.37-1.28,2.12,1.38,2,2.04-.09,11.03-6.3,11.98-6.14.58.1-5.17,5.13.24,6.04,3.57.6,8.68-.85,10.63-1.95.12-.06.25-.15.37-.23l.07-.41c-.13,0-.31.03-.57.09-1.45.32-8.86,2.24-8.57.52s5-6.11,1.05-6.78c-3.16-.53-7.26,1.03-9.44,3.07,0,0,5.02-5.99-.17-6.86-4.05-.68-8.92,1.97-8.92,1.97,0,0,3.35-4.86-1.2-5.62-6.99-1.17-20.21,8.29-28.31,10.74-1.61.48-2.19.05-1.12-1.2,7.67-9,17.31-20.46,32.88-25.7,0,0-.35-.29-1.34-.45-11.73-1.97-29.28,15.87-37.6,25.74M758.61,58.6c-9.18,8.44-16.64,17.88-17.64,17.71-1.11-.19-.39-9.14-.36-16.3.02-5.64.08-12.69-1.86-16.63-1.11-2.26-3.34-3.47-4.86-3.5,0,0,.25,17.07.22,23.39-.03,5.58-.17,19.8,4.42,20.57,6.63,1.11,20.02-28.56,45.74-37.37,0,0-.35-.29-1.34-.45-7.24-1.21-16.4,5.29-24.33,12.58"/>
  </g>
</svg>