<?xml version="1.0" encoding="utf-8"?>
<!-- Generator: Adobe Illustrator 24.1.0, SVG Export Plug-In . SVG Version: 6.00 Build 0)  -->
<svg version="1.1" id="Calque_1" xmlns="http://www.w3.org/2000/svg" xmlns:xlink="http://www.w3.org/1999/xlink" x="0px" y="0px"
	 viewBox="0 0 127.6 102.6" style="enable-background:new 0 0 127.6 102.6;" xml:space="preserve">
<g>
	<defs>
		<path id="SVGID_1_" d="M45.5,61.3c-1.4,1.9-3.4,5.4,1.5,5.4c10.4,0,27.9-15.1,32.6-15.1c3.6,0-8.4,9.6-8.4,11.3
			c0,0.7,2.4,0.6,3.7,0.3c3.5-0.8,13.3-10.7,17.1-10.7c1.6,0-2.9,6.3-3.7,7.6c-0.8,1.4-1,2.1,1.9,1.6c2.2-0.4,10.8-7.3,11.9-7.3
			c0.6,0-4.7,5.4,1.4,5.4c4,0,9.3-2.1,11.2-3.4c0.1-0.1,0.2-0.2,0.4-0.3v-0.4c-0.1,0-0.3,0.1-0.6,0.2c-1.5,0.5-9.2,3.4-9.2,1.8
			c0-1.5,4.3-6.3-0.1-6.3c-3.5,0-7.7,2-9.7,4.2c0,0,4.4-6.1-1.4-6.1c-4.5,0-9.3,3.1-9.3,3.1s2.8-4.9-2.3-4.9
			c-7.8,0-20.4,10.5-28.8,13.9c-1.7,0.7-2.4,0.4-1.4-0.9c6.7-9.2,15.1-21,31-28.1c0,0-0.4-0.2-1.5-0.2
			C68.6,32.5,52.8,51.2,45.5,61.3 M46.1,46.9c-8.4,9-14.8,18.6-15.9,18.6c-1.2,0-2.1-8.2-3.4-14.6c-1-5.1-2.2-11.4-5-14.7
			c-1.6-1.9-4.3-2.6-5.9-2.4c0,0,3.4,15.3,4.5,21c1,5,3.4,17.8,8.5,17.8c7.4,0,16.5-28.7,42.8-40.5c0,0-0.4-0.2-1.5-0.2
			C62.1,31.9,53.4,39.2,46.1,46.9"/>
	</defs>
	<use xlink:href="#SVGID_1_"  style="overflow:visible;fill:#141412;"/>
	<clipPath id="SVGID_2_">
		<use xlink:href="#SVGID_1_"  style="overflow:visible;"/>
	</clipPath>
</g>
</svg>
