<?xml version="1.0" encoding="utf-8"?>
<!-- Generator: Adobe Illustrator 24.1.0, SVG Export Plug-In . SVG Version: 6.00 Build 0)  -->
<svg version="1.1" id="Calque_1" xmlns="http://www.w3.org/2000/svg" xmlns:xlink="http://www.w3.org/1999/xlink" x="0px" y="0px"
	 viewBox="0 0 127.6 102.6" style="enable-background:new 0 0 127.6 102.6;" xml:space="preserve">
<style type="text/css">
	.st0{fill:#141412;}
</style>
<g>
	<defs>
		<path id="SVGID_1_" d="M45.5,48.2c-1.4,1.9-3.4,5.4,1.5,5.4c10.4,0,27.9-15.1,32.6-15.1c3.6,0-8.4,9.6-8.4,11.3
			c0,0.7,2.4,0.6,3.7,0.3c3.5-0.8,13.3-10.7,17.1-10.7c1.6,0-2.9,6.3-3.7,7.6c-0.8,1.4-1,2.1,1.9,1.6c2.2-0.4,10.8-7.3,11.9-7.3
			c0.6,0-4.7,5.4,1.4,5.4c4,0,9.3-2.1,11.2-3.4c0.1-0.1,0.2-0.2,0.4-0.3v-0.4c-0.1,0-0.3,0.1-0.6,0.2c-1.5,0.5-9.2,3.4-9.2,1.8
			c0-1.5,4.3-6.3-0.1-6.3c-3.5,0-7.7,2-9.7,4.2c0,0,4.4-6.1-1.4-6.1c-4.5,0-9.3,3.1-9.3,3.1s2.8-4.9-2.3-4.9
			c-7.8,0-20.4,10.5-28.8,13.9c-1.7,0.7-2.4,0.4-1.4-0.9c6.7-9.2,15.1-21,31-28.1c0,0-0.4-0.2-1.5-0.2
			C68.6,19.4,52.8,38.1,45.5,48.2 M46.1,33.8c-8.4,9-14.8,18.6-15.9,18.6c-1.2,0-2.1-8.2-3.4-14.6c-1-5.1-2.2-11.4-5-14.7
			c-1.6-1.9-4.3-2.6-5.9-2.4c0,0,3.4,15.3,4.5,21c1,5,3.4,17.8,8.5,17.8c7.4,0,16.5-28.7,42.8-40.5c0,0-0.4-0.2-1.5-0.2
			C62.1,18.8,53.4,26,46.1,33.8"/>
	</defs>
	<use xlink:href="#SVGID_1_"  style="overflow:visible;fill:#141412;"/>
	<clipPath id="SVGID_2_">
		<use xlink:href="#SVGID_1_"  style="overflow:visible;"/>
	</clipPath>
</g>
<g>
	<path class="st0" d="M18.9,80.6c-0.5,0-1-0.1-1.4-0.2c-0.4-0.1-0.7-0.3-0.9-0.5c-0.2-0.2-0.4-0.5-0.5-0.9C16,78.6,16,78.2,16,77.7
		v-6h2.4v5.8c0,0.3,0.1,0.6,0.2,0.7c0.1,0.1,0.3,0.2,0.6,0.2h6.2v2.3H18.9z"/>
	<path class="st0" d="M35.7,71.7V74h-6.8c-0.1,0-0.2,0.1-0.2,0.2v1h7V77h-7v1.1c0,0.2,0.1,0.2,0.2,0.2h6.8v2.3h-8.2
		c-0.8,0-1.3-0.4-1.3-1.2v-6.5c0-0.8,0.4-1.2,1.3-1.2H35.7z"/>
	<path class="st0" d="M49.1,80.8c-0.3,0-0.6-0.1-0.9-0.2c-0.3-0.1-0.5-0.3-0.6-0.6l-2.7-5.6c0-0.1-0.1-0.1-0.2-0.1
		c-0.1,0-0.1,0-0.1,0.1c0,0-0.1,0.1-0.1,0.2v6.1h-2.3v-6.6c0-0.5,0.1-0.9,0.2-1.2c0.1-0.3,0.4-0.6,0.6-0.8c0.2-0.2,0.4-0.3,0.7-0.4
		c0.3-0.1,0.5-0.2,0.9-0.2c0.6,0,1,0.2,1.4,0.5c0.4,0.3,0.7,0.7,0.9,1.2l2,4.4c0,0.1,0.1,0.2,0.2,0.2c0.1,0,0.2-0.1,0.2-0.2l2-4.4
		c0.2-0.5,0.5-0.9,0.9-1.2c0.4-0.3,0.8-0.5,1.4-0.5c0.3,0,0.6,0,0.9,0.2c0.3,0.1,0.5,0.2,0.7,0.4c0.3,0.2,0.5,0.5,0.6,0.8
		c0.1,0.3,0.2,0.7,0.2,1.2v6.6h-2.3v-6.1c0-0.1,0-0.1-0.1-0.2c0,0-0.1-0.1-0.1-0.1c-0.1,0-0.1,0-0.2,0.1L50.6,80
		c-0.1,0.3-0.3,0.5-0.6,0.6C49.7,80.8,49.4,80.8,49.1,80.8"/>
	<path class="st0" d="M61.8,74c-0.4,0-0.7,0.1-1,0.2c-0.3,0.1-0.5,0.2-0.7,0.4c-0.2,0.2-0.4,0.4-0.5,0.7c-0.1,0.3-0.2,0.5-0.2,0.8
		c0,0.3,0,0.5,0.1,0.8c0.1,0.2,0.2,0.5,0.4,0.6c0.2,0.2,0.4,0.4,0.7,0.5c0.3,0.1,0.6,0.2,1.1,0.2h1.9c0.4,0,0.8-0.1,1.1-0.2
		c0.3-0.1,0.5-0.3,0.7-0.5c0.2-0.2,0.3-0.4,0.4-0.6c0.1-0.2,0.1-0.5,0.1-0.8c0-0.3-0.1-0.6-0.2-0.8c-0.1-0.3-0.3-0.5-0.5-0.7
		c-0.2-0.2-0.4-0.3-0.7-0.4c-0.3-0.1-0.6-0.2-1-0.2H61.8z M61.8,80.6c-0.8,0-1.5-0.1-2.1-0.4c-0.6-0.3-1.1-0.6-1.5-1.1
		c-0.4-0.4-0.6-0.9-0.8-1.4c-0.2-0.5-0.3-1.1-0.3-1.7c0-0.7,0.1-1.3,0.4-1.8c0.3-0.6,0.6-1.1,1.1-1.5c0.4-0.4,0.9-0.7,1.4-0.9
		s1.2-0.3,1.9-0.3h1.9c0.7,0,1.4,0.1,1.9,0.3c0.5,0.2,1,0.5,1.4,0.9c0.4,0.4,0.8,0.9,1.1,1.5c0.3,0.6,0.4,1.2,0.4,1.8
		c0,0.6-0.1,1.1-0.3,1.7c-0.2,0.5-0.5,1-0.8,1.4c-0.4,0.5-0.9,0.8-1.5,1.1c-0.6,0.3-1.3,0.4-2.1,0.4H61.8z"/>
	<path class="st0" d="M80.8,81.7c0,0.3,0,0.6-0.1,0.9c-0.1,0.2-0.2,0.4-0.4,0.6c-0.2,0.2-0.3,0.3-0.5,0.3c-0.2,0.1-0.4,0.1-0.6,0.1
		c-0.4,0-0.7-0.1-1-0.2c-0.3-0.1-0.5-0.3-0.7-0.5l-4.9-5.7c-0.1-0.1-0.1-0.1-0.2-0.1c-0.1,0-0.1,0-0.2,0.1c0,0-0.1,0.1-0.1,0.2v6.1
		h-2.4v-7.1c0-0.4,0.1-0.7,0.2-1c0.1-0.3,0.2-0.5,0.4-0.7c0.2-0.2,0.4-0.3,0.7-0.4c0.3-0.1,0.5-0.1,0.8-0.1c0.4,0,0.8,0.1,1.1,0.2
		c0.3,0.1,0.6,0.4,0.9,0.7l4.4,5.2c0,0,0.1,0.1,0.1,0.1c0,0,0.1,0,0.1,0c0.1,0,0.2-0.1,0.2-0.2v-3.8h2.3V81.7z"/>
	<path class="st0" d="M89.6,76.1c0,0.3,0,0.6-0.1,0.9c-0.1,0.2-0.2,0.4-0.4,0.6c-0.2,0.2-0.3,0.3-0.5,0.3C88.3,78,88.1,78,87.9,78
		c-0.4,0-0.7-0.1-1-0.2c-0.3-0.1-0.5-0.3-0.7-0.5l-4.9-5.7c-0.1-0.1-0.1-0.1-0.2-0.1c-0.1,0-0.1,0-0.2,0.1c0,0-0.1,0.1-0.1,0.2v4.1
		h-2.4v-5.1c0-0.4,0.1-0.7,0.2-1c0.1-0.3,0.2-0.5,0.4-0.6c0.2-0.2,0.4-0.3,0.7-0.4c0.3-0.1,0.5-0.1,0.8-0.1c0.4,0,0.8,0.1,1.1,0.2
		c0.3,0.1,0.6,0.4,0.9,0.7l4.4,5.2c0,0,0.1,0.1,0.1,0.1c0,0,0.1,0,0.1,0c0.1,0,0.2-0.1,0.2-0.2v-5.8h2.3V76.1z"/>
</g>
<rect x="90.8" y="71.7" class="st0" width="2.4" height="9"/>
<g>
	<path class="st0" d="M104,71.7V74h-6.8C97,74,97,74.1,97,74.3v1h7V77h-7v1.1c0,0.2,0.1,0.2,0.2,0.2h6.8v2.3h-8.2
		c-0.8,0-1.3-0.4-1.3-1.2v-6.5c0-0.8,0.4-1.2,1.3-1.2H104z"/>
	<path class="st0" d="M111.7,75.4c0.2,0,0.3,0,0.4-0.1c0.1-0.1,0.2-0.1,0.3-0.2c0.1-0.1,0.2-0.3,0.2-0.5c0-0.2-0.1-0.4-0.2-0.5
		c-0.1-0.2-0.4-0.2-0.7-0.2h-4c-0.1,0-0.2,0.1-0.2,0.2v1.3H111.7z M107.5,80.6h-2.4v-8.4c0-0.4,0.2-0.6,0.6-0.6h6.4
		c0.6,0,1,0.1,1.4,0.2c0.4,0.2,0.7,0.4,0.9,0.6c0.2,0.2,0.4,0.5,0.5,0.8c0.1,0.3,0.2,0.6,0.2,1c0,0.4-0.1,0.7-0.2,1
		c-0.1,0.3-0.3,0.6-0.7,0.8c0.3,0.2,0.5,0.4,0.7,0.7c0.1,0.3,0.2,0.7,0.2,1.2v1.8c0,0.2,0,0.4,0,0.5c0,0.1,0,0.2,0,0.4h-2.4
		c0-0.2,0-0.4,0-0.6v-1.8c0-0.3-0.1-0.5-0.2-0.6c-0.2-0.1-0.4-0.2-0.8-0.2h-4.2V80.6z"/>
	<path class="st0" d="M15.7,65.5C15.6,65.5,15.6,65.5,15.7,65.5c0-0.1-0.1-0.1-0.1-0.2h1.1c0,0,0,0.1,0,0.1l1.1,2.5
		c0,0,0,0.1,0.1,0.1c0,0,0.1,0,0.1,0s0.1,0,0.1,0c0,0,0,0,0.1-0.1l1.1-2.5c0,0,0-0.1,0-0.1h1.1c0,0,0,0.1,0,0.1c0,0,0,0.1,0,0.1
		L19,68.4c-0.1,0.2-0.2,0.4-0.4,0.5C18.5,69,18.2,69,18,69c-0.5,0-0.8-0.2-1-0.7L15.7,65.5z"/>
	<path class="st0" d="M23.9,67.5c0,0.1-0.1,0.2-0.2,0.3c-0.1,0.1-0.2,0.2-0.3,0.2C23.3,68,23.2,68,23,68h-0.8c-0.2,0-0.3,0-0.4-0.1
		c-0.1,0-0.2-0.1-0.3-0.2c-0.1-0.1-0.1-0.2-0.2-0.3c0-0.1-0.1-0.2-0.1-0.3c0-0.1,0-0.2,0.1-0.3c0-0.1,0.1-0.2,0.2-0.3
		c0.1-0.1,0.2-0.1,0.3-0.2c0.1,0,0.2-0.1,0.4-0.1H23c0.2,0,0.3,0,0.4,0.1c0.1,0,0.2,0.1,0.3,0.2c0.1,0.1,0.1,0.2,0.2,0.3
		c0,0.1,0.1,0.2,0.1,0.3C24,67.3,23.9,67.4,23.9,67.5 M24.8,66.4c-0.1-0.2-0.2-0.4-0.4-0.6c-0.2-0.1-0.3-0.3-0.6-0.3
		c-0.2-0.1-0.5-0.1-0.8-0.1h-0.8c-0.3,0-0.5,0-0.8,0.1c-0.2,0.1-0.4,0.2-0.6,0.3c-0.2,0.2-0.3,0.4-0.4,0.6c-0.1,0.2-0.2,0.5-0.2,0.7
		c0,0.2,0,0.5,0.1,0.7c0.1,0.2,0.2,0.4,0.3,0.5c0.2,0.2,0.4,0.3,0.6,0.4c0.2,0.1,0.5,0.2,0.8,0.2H23c0.3,0,0.6-0.1,0.8-0.2
		c0.2-0.1,0.4-0.2,0.6-0.4c0.1-0.2,0.3-0.3,0.3-0.5c0.1-0.2,0.1-0.4,0.1-0.7C24.9,66.9,24.9,66.6,24.8,66.4"/>
	<path class="st0" d="M24.8,65.5C24.8,65.5,24.7,65.4,24.8,65.5c-0.1-0.1-0.1-0.1-0.1-0.1h1.2c0,0,0,0,0,0.1c0,0,0,0,0.1,0.1l0.9,1
		c0,0,0,0,0.1,0c0,0,0.1,0,0.1,0l0.9-1c0,0,0.1-0.1,0.1-0.1h1.2c0,0,0,0,0,0.1s0,0-0.1,0.1l-1.7,1.9v1.6h-1v-1.7L24.8,65.5z"/>
	<path class="st0" d="M30,67.6l0.5-1.3c0,0,0-0.1,0.1-0.1c0,0,0.1,0,0.1,0c0,0,0.1,0,0.1,0c0,0,0.1,0,0.1,0.1l0.5,1.3H30z
		 M33.1,68.9C33.1,68.8,33,68.8,33.1,68.9l-1.3-2.9c-0.1-0.2-0.2-0.4-0.4-0.5c-0.2-0.1-0.4-0.2-0.6-0.2c-0.3,0-0.5,0.1-0.6,0.2
		c-0.2,0.1-0.3,0.3-0.4,0.5l-1.3,2.8c0,0,0,0.1,0,0.1c0,0,0,0.1,0,0.1h1.1c0,0,0,0,0-0.1c0,0,0,0,0-0.1l0.2-0.4h2.1l0.2,0.4
		c0,0,0,0,0,0.1c0,0,0,0,0,0.1L33.1,68.9C33.1,68.9,33.1,68.9,33.1,68.9"/>
	<path class="st0" d="M35,68.9c-0.3,0-0.6-0.1-0.8-0.2c-0.2-0.1-0.4-0.2-0.6-0.4c-0.1-0.2-0.3-0.3-0.3-0.5c-0.1-0.2-0.1-0.4-0.1-0.7
		c0-0.3,0.1-0.5,0.2-0.7c0.1-0.2,0.2-0.4,0.4-0.6c0.2-0.1,0.3-0.3,0.6-0.3c0.2-0.1,0.5-0.1,0.8-0.1h1.9v0.9H35c-0.2,0-0.3,0-0.4,0.1
		c-0.1,0-0.2,0.1-0.3,0.2c-0.1,0.1-0.1,0.2-0.2,0.3c0,0.1-0.1,0.2-0.1,0.3c0,0.1,0,0.2,0.1,0.3c0,0.1,0.1,0.2,0.2,0.3
		c0.1,0.1,0.2,0.2,0.3,0.2C34.7,68,34.8,68,35,68h0.9c0,0,0.1,0,0.1-0.1v-1h1v1.7c0,0.2-0.1,0.2-0.2,0.2H35z"/>
	<path class="st0" d="M41.4,65.4v0.9h-2.7c-0.1,0-0.1,0-0.1,0.1v0.4h2.8v0.7h-2.8v0.4c0,0.1,0,0.1,0.1,0.1h2.7v0.9h-3.3
		c-0.3,0-0.5-0.2-0.5-0.5v-2.6c0-0.3,0.2-0.5,0.5-0.5H41.4z"/>
	<path class="st0" d="M45.7,66.3h-2.6c-0.1,0-0.1,0-0.1,0c0,0-0.1,0-0.1,0c0,0-0.1,0.1-0.1,0.2c0,0.1,0,0.1,0.1,0.2c0,0,0,0,0.1,0
		c0,0,0.1,0,0.1,0h1.6c0.2,0,0.4,0,0.5,0.1c0.1,0.1,0.3,0.1,0.4,0.2c0.1,0.1,0.2,0.2,0.2,0.3c0.1,0.1,0.1,0.3,0.1,0.4
		c0,0.1,0,0.3-0.1,0.4c0,0.1-0.1,0.2-0.2,0.3c-0.1,0.1-0.2,0.2-0.4,0.3c-0.1,0.1-0.3,0.1-0.5,0.1H42V68h2.6c0.1,0,0.1,0,0.2,0
		c0,0,0.1,0,0.1-0.1c0,0,0.1-0.1,0.1-0.2c0-0.1,0-0.1-0.1-0.2c0,0-0.1,0-0.1-0.1c0,0-0.1,0-0.2,0h-1.5c-0.2,0-0.4,0-0.6-0.1
		c-0.1-0.1-0.3-0.1-0.4-0.2c-0.1-0.1-0.2-0.2-0.2-0.3c-0.1-0.1-0.1-0.3-0.1-0.4c0-0.1,0-0.3,0.1-0.4c0.1-0.1,0.1-0.2,0.2-0.3
		c0.1-0.1,0.2-0.2,0.4-0.2c0.1-0.1,0.3-0.1,0.6-0.1h2.6V66.3z"/>
</g>
</svg>
