<?xml version="1.0" encoding="utf-8"?>
<!-- Generator: Adobe Illustrator 24.1.0, SVG Export Plug-In . SVG Version: 6.00 Build 0)  -->
<svg version="1.1" xmlns="http://www.w3.org/2000/svg" xmlns:xlink="http://www.w3.org/1999/xlink" x="0px" y="0px"
	 viewBox="0 0 205.6 113.9" style="enable-background:new 0 0 205.6 113.9;" xml:space="preserve">
<style type="text/css">
	.st0{fill:#010102;}
	.st1{fill:#9A0371;}
	.st2{filter:url(#Adobe_OpacityMaskFilter);}
	.st3{fill:url(#SVGID_2_);}
	.st4{mask:url(#SVGID_1_);}
</style>
<g id="Calque_1">
	<g>
		<path class="st0" d="M89.2,86.7c-0.4,0-0.8,0-1.1-0.1c-0.3-0.1-0.6-0.2-0.7-0.4c-0.2-0.2-0.3-0.4-0.4-0.7c-0.1-0.3-0.1-0.6-0.1-1
			v-4.9h2v4.7c0,0.3,0,0.4,0.1,0.5c0.1,0.1,0.3,0.1,0.5,0.1h5.1v1.9H89.2z"/>
		<path class="st0" d="M102.9,79.4v1.9h-5.5c-0.1,0-0.2,0.1-0.2,0.2v0.8h5.7v1.4h-5.7v0.9c0,0.1,0.1,0.2,0.2,0.2h5.5v1.9h-6.6
			c-0.7,0-1-0.3-1-1v-5.3c0-0.7,0.3-1,1-1H102.9z"/>
		<path class="st0" d="M113.7,86.8c-0.3,0-0.5-0.1-0.7-0.2c-0.2-0.1-0.4-0.3-0.5-0.5l-2.2-4.6c0-0.1-0.1-0.1-0.1-0.1
			c0,0-0.1,0-0.1,0c0,0-0.1,0.1-0.1,0.1v5h-1.9v-5.3c0-0.4,0.1-0.7,0.2-1c0.1-0.3,0.3-0.5,0.5-0.7c0.2-0.1,0.4-0.2,0.6-0.3
			c0.2-0.1,0.4-0.1,0.7-0.1c0.5,0,0.8,0.1,1.1,0.4c0.3,0.3,0.5,0.6,0.7,1l1.6,3.6c0,0.1,0.1,0.1,0.2,0.1c0.1,0,0.1,0,0.2-0.1
			l1.7-3.6c0.2-0.4,0.4-0.7,0.7-1c0.3-0.3,0.7-0.4,1.1-0.4c0.3,0,0.5,0,0.7,0.1c0.2,0.1,0.4,0.2,0.6,0.3c0.2,0.2,0.4,0.4,0.5,0.7
			c0.1,0.3,0.2,0.6,0.2,1v5.3h-1.9v-5c0-0.1,0-0.1-0.1-0.1c0,0-0.1,0-0.1,0c-0.1,0-0.1,0-0.1,0.1l-2.2,4.6c-0.1,0.2-0.3,0.4-0.5,0.5
			C114.2,86.8,114,86.8,113.7,86.8"/>
		<path class="st0" d="M124.1,81.3c-0.3,0-0.6,0-0.8,0.1c-0.2,0.1-0.4,0.2-0.6,0.3c-0.2,0.2-0.3,0.3-0.4,0.6
			c-0.1,0.2-0.1,0.4-0.1,0.7c0,0.2,0,0.4,0.1,0.6c0.1,0.2,0.2,0.4,0.3,0.5c0.2,0.2,0.4,0.3,0.6,0.4c0.2,0.1,0.5,0.1,0.9,0.1h1.5
			c0.3,0,0.6-0.1,0.9-0.1c0.2-0.1,0.4-0.2,0.6-0.4c0.1-0.1,0.3-0.3,0.3-0.5c0.1-0.2,0.1-0.4,0.1-0.6c0-0.2-0.1-0.5-0.1-0.7
			c-0.1-0.2-0.2-0.4-0.4-0.6c-0.2-0.1-0.3-0.3-0.6-0.3c-0.2-0.1-0.5-0.1-0.8-0.1H124.1z M124.1,86.7c-0.7,0-1.2-0.1-1.7-0.3
			c-0.5-0.2-0.9-0.5-1.2-0.9c-0.3-0.3-0.5-0.7-0.7-1.1c-0.2-0.4-0.2-0.9-0.2-1.3c0-0.5,0.1-1,0.3-1.5c0.2-0.5,0.5-0.9,0.9-1.2
			c0.3-0.3,0.7-0.5,1.1-0.7c0.4-0.2,1-0.3,1.5-0.3h1.5c0.6,0,1.1,0.1,1.5,0.3c0.4,0.2,0.8,0.4,1.1,0.7c0.4,0.3,0.7,0.7,0.9,1.2
			c0.2,0.5,0.3,1,0.3,1.5c0,0.5-0.1,0.9-0.2,1.3c-0.2,0.4-0.4,0.8-0.7,1.1c-0.3,0.4-0.7,0.7-1.2,0.9c-0.5,0.2-1,0.3-1.7,0.3H124.1z"
			/>
		<path class="st0" d="M139.5,87.5c0,0.3,0,0.5-0.1,0.7c-0.1,0.2-0.2,0.4-0.3,0.5c-0.1,0.1-0.3,0.2-0.4,0.3
			c-0.2,0.1-0.3,0.1-0.5,0.1c-0.3,0-0.6,0-0.8-0.1c-0.2-0.1-0.4-0.2-0.6-0.4l-4-4.6c-0.1-0.1-0.1-0.1-0.2-0.1c0,0-0.1,0-0.1,0.1
			c0,0-0.1,0.1-0.1,0.1v4.9h-1.9v-5.7c0-0.3,0-0.6,0.1-0.8c0.1-0.2,0.2-0.4,0.3-0.5c0.2-0.1,0.3-0.2,0.5-0.3
			c0.2-0.1,0.4-0.1,0.7-0.1c0.3,0,0.6,0.1,0.9,0.2c0.2,0.1,0.5,0.3,0.7,0.6l3.6,4.3c0,0,0.1,0.1,0.1,0.1s0.1,0,0.1,0
			c0.1,0,0.2-0.1,0.2-0.2v-3.1h1.9V87.5z"/>
		<path class="st1" d="M146.7,83c0,0.3,0,0.5-0.1,0.7c-0.1,0.2-0.2,0.4-0.3,0.5c-0.1,0.1-0.3,0.2-0.4,0.3c-0.2,0.1-0.3,0.1-0.5,0.1
			c-0.3,0-0.6,0-0.8-0.1c-0.2-0.1-0.4-0.2-0.6-0.4l-4-4.6c-0.1-0.1-0.1-0.1-0.2-0.1c0,0-0.1,0-0.1,0.1c0,0-0.1,0.1-0.1,0.2v3.3h-1.9
			v-4.1c0-0.3,0-0.6,0.1-0.8c0.1-0.2,0.2-0.4,0.3-0.5c0.2-0.1,0.3-0.2,0.5-0.3c0.2-0.1,0.4-0.1,0.7-0.1c0.3,0,0.6,0.1,0.9,0.2
			c0.2,0.1,0.5,0.3,0.7,0.6l3.6,4.3c0,0,0.1,0.1,0.1,0.1c0,0,0.1,0,0.1,0c0.1,0,0.1-0.1,0.1-0.2v-4.7h1.9V83z"/>
		<rect x="147.7" y="79.4" class="st0" width="2" height="7.3"/>
		<path class="st0" d="M158.4,79.4v1.9h-5.5c-0.1,0-0.2,0.1-0.2,0.2v0.8h5.7v1.4h-5.7v0.9c0,0.1,0.1,0.2,0.2,0.2h5.5v1.9h-6.6
			c-0.7,0-1-0.3-1-1v-5.3c0-0.7,0.3-1,1-1H158.4z"/>
		<path class="st0" d="M164.8,82.4c0.1,0,0.2,0,0.3-0.1c0.1,0,0.2-0.1,0.2-0.2c0.1-0.1,0.1-0.2,0.1-0.4c0-0.2-0.1-0.3-0.2-0.4
			c-0.1-0.1-0.3-0.2-0.5-0.2h-3.3c-0.1,0-0.2,0.1-0.2,0.2v1.1H164.8z M161.3,86.7h-2v-6.8c0-0.3,0.2-0.5,0.5-0.5h5.2
			c0.5,0,0.8,0.1,1.1,0.2c0.3,0.1,0.5,0.3,0.7,0.5c0.2,0.2,0.3,0.4,0.4,0.7c0.1,0.2,0.2,0.5,0.2,0.8c0,0.3,0,0.6-0.2,0.8
			c-0.1,0.3-0.3,0.5-0.5,0.7c0.2,0.1,0.4,0.3,0.5,0.6c0.1,0.2,0.2,0.5,0.2,1V86c0,0.2,0,0.3,0,0.4c0,0.1,0,0.2,0,0.3h-2
			c0-0.2,0-0.3,0-0.5v-1.5c0-0.2-0.1-0.4-0.2-0.5c-0.1-0.1-0.3-0.2-0.6-0.2h-3.4V86.7z"/>
		<path class="st0" d="M86.5,74.4C86.5,74.4,86.5,74.3,86.5,74.4c0-0.1,0-0.1,0-0.1h0.9c0,0,0,0.1,0,0.1l0.9,2c0,0,0,0.1,0.1,0.1
			c0,0,0,0,0.1,0c0,0,0,0,0.1,0c0,0,0,0,0.1-0.1l0.9-2c0,0,0-0.1,0-0.1h0.9c0,0,0,0,0,0.1c0,0,0,0,0,0.1l-1,2.3
			c-0.1,0.2-0.2,0.3-0.3,0.4c-0.1,0.1-0.3,0.1-0.5,0.1c-0.4,0-0.7-0.2-0.8-0.5L86.5,74.4z"/>
		<path class="st0" d="M93.2,76c0,0.1-0.1,0.1-0.1,0.2c-0.1,0.1-0.1,0.1-0.2,0.2c-0.1,0-0.2,0.1-0.3,0.1h-0.6c-0.1,0-0.3,0-0.4-0.1
			c-0.1,0-0.2-0.1-0.2-0.2c-0.1-0.1-0.1-0.1-0.1-0.2c0-0.1,0-0.2,0-0.3c0-0.1,0-0.2,0.1-0.3c0-0.1,0.1-0.2,0.2-0.2
			c0.1-0.1,0.1-0.1,0.2-0.1c0.1,0,0.2-0.1,0.3-0.1h0.6c0.1,0,0.2,0,0.3,0.1c0.1,0,0.2,0.1,0.2,0.1c0.1,0.1,0.1,0.1,0.2,0.2
			c0,0.1,0.1,0.2,0.1,0.3C93.3,75.8,93.3,75.9,93.2,76 M93.9,75.1c-0.1-0.2-0.2-0.3-0.3-0.5c-0.1-0.1-0.3-0.2-0.5-0.3
			c-0.2-0.1-0.4-0.1-0.6-0.1h-0.6c-0.2,0-0.4,0-0.6,0.1c-0.2,0.1-0.3,0.2-0.5,0.3c-0.1,0.1-0.3,0.3-0.3,0.5
			c-0.1,0.2-0.1,0.4-0.1,0.6c0,0.2,0,0.4,0.1,0.5c0.1,0.2,0.2,0.3,0.3,0.4c0.1,0.1,0.3,0.3,0.5,0.3c0.2,0.1,0.4,0.1,0.7,0.1h0.6
			c0.3,0,0.5,0,0.7-0.1c0.2-0.1,0.4-0.2,0.5-0.3c0.1-0.1,0.2-0.3,0.3-0.4c0.1-0.2,0.1-0.3,0.1-0.5C94.1,75.5,94,75.3,93.9,75.1"/>
		<path class="st0" d="M93.9,74.4C93.9,74.3,93.9,74.3,93.9,74.4C93.9,74.3,93.9,74.3,93.9,74.4l0.9-0.1c0,0,0,0,0,0c0,0,0,0,0,0.1
			l0.7,0.8c0,0,0,0,0.1,0c0,0,0,0,0.1,0l0.7-0.8c0,0,0.1-0.1,0.1-0.1h0.9c0,0,0,0,0,0c0,0,0,0,0,0.1l-1.4,1.5v1.3h-0.8v-1.4
			L93.9,74.4z"/>
		<path class="st0" d="M98.2,76.1l0.4-1c0,0,0-0.1,0.1-0.1c0,0,0,0,0.1,0c0,0,0.1,0,0.1,0c0,0,0,0,0.1,0.1l0.4,1H98.2z M100.7,77.1
			C100.7,77.1,100.7,77.1,100.7,77.1l-1.1-2.4c-0.1-0.2-0.2-0.3-0.3-0.4c-0.1-0.1-0.3-0.1-0.5-0.1c-0.2,0-0.4,0-0.5,0.1
			c-0.1,0.1-0.2,0.2-0.3,0.4l-1,2.3c0,0,0,0,0,0.1c0,0,0,0,0,0.1h0.9c0,0,0,0,0,0c0,0,0,0,0-0.1l0.2-0.3h1.7l0.2,0.4c0,0,0,0,0,0
			c0,0,0,0,0,0.1L100.7,77.1C100.7,77.1,100.7,77.1,100.7,77.1"/>
		<path class="st0" d="M102.3,77.2c-0.3,0-0.5,0-0.7-0.1c-0.2-0.1-0.4-0.2-0.5-0.3c-0.1-0.1-0.2-0.3-0.3-0.4
			c-0.1-0.2-0.1-0.3-0.1-0.5c0-0.2,0-0.4,0.1-0.6c0.1-0.2,0.2-0.3,0.3-0.5c0.1-0.1,0.3-0.2,0.5-0.3c0.2-0.1,0.4-0.1,0.6-0.1h1.6V75
			h-1.6c-0.1,0-0.2,0-0.3,0.1c-0.1,0-0.2,0.1-0.2,0.1c-0.1,0.1-0.1,0.1-0.2,0.2c0,0.1-0.1,0.2-0.1,0.3c0,0.1,0,0.2,0,0.3
			c0,0.1,0.1,0.1,0.1,0.2c0.1,0.1,0.1,0.1,0.2,0.2c0.1,0,0.2,0.1,0.4,0.1h0.7c0,0,0.1,0,0.1-0.1v-0.8h0.8V77c0,0.1-0.1,0.2-0.2,0.2
			H102.3z"/>
		<path class="st0" d="M107.5,74.3V75h-2.2c0,0-0.1,0-0.1,0.1v0.3h2.3V76h-2.3v0.4c0,0.1,0,0.1,0.1,0.1h2.2v0.7h-2.7
			c-0.3,0-0.4-0.1-0.4-0.4v-2.1c0-0.3,0.1-0.4,0.4-0.4H107.5z"/>
		<path class="st0" d="M111,75h-2.1c0,0-0.1,0-0.1,0c0,0-0.1,0-0.1,0c0,0-0.1,0.1-0.1,0.2c0,0.1,0,0.1,0.1,0.2c0,0,0,0,0.1,0
			c0,0,0.1,0,0.1,0h1.3c0.2,0,0.3,0,0.4,0.1c0.1,0,0.2,0.1,0.3,0.2c0.1,0.1,0.1,0.2,0.2,0.3c0,0.1,0.1,0.2,0.1,0.3
			c0,0.1,0,0.2-0.1,0.3c0,0.1-0.1,0.2-0.2,0.3c-0.1,0.1-0.2,0.2-0.3,0.2c-0.1,0.1-0.3,0.1-0.4,0.1h-2.3v-0.7h2.1c0.1,0,0.1,0,0.1,0
			c0,0,0.1,0,0.1-0.1c0,0,0-0.1,0-0.1c0-0.1,0-0.1-0.1-0.2c0,0,0,0-0.1-0.1c0,0-0.1,0-0.1,0h-1.2c-0.2,0-0.4,0-0.5-0.1
			c-0.1,0-0.2-0.1-0.3-0.2c-0.1-0.1-0.1-0.2-0.2-0.3c0-0.1-0.1-0.2-0.1-0.3c0-0.1,0-0.2,0.1-0.3c0-0.1,0.1-0.2,0.2-0.3
			c0.1-0.1,0.2-0.1,0.3-0.2c0.1,0,0.3-0.1,0.5-0.1h2.1V75z"/>
	</g>
</g>
<g id="Calque_2">
	<defs>
		<filter id="Adobe_OpacityMaskFilter" filterUnits="userSpaceOnUse" x="21.4" y="25.5" width="160.3" height="55.2">
			<feColorMatrix  type="matrix" values="1 0 0 0 0  0 1 0 0 0  0 0 1 0 0  0 0 0 1 0"/>
		</filter>
	</defs>
	<mask maskUnits="userSpaceOnUse" x="21.4" y="25.5" width="160.3" height="55.2" id="SVGID_1_">
		<g class="st2">
			
				<linearGradient id="SVGID_2_" gradientUnits="userSpaceOnUse" x1="-168.6101" y1="484.7549" x2="-168.0744" y2="484.7549" gradientTransform="matrix(-205.8056 -131.6182 -131.6182 205.8056 29123.5762 -121790.3047)">
				<stop  offset="0" style="stop-color:#FFFFFF"/>
				<stop  offset="1" style="stop-color:#000000"/>
			</linearGradient>
			<polygon class="st3" points="165.3,579.9 -248.4,315.3 43,-140.4 456.7,124.2 			"/>
		</g>
	</mask>
	<g class="st4">
		<g>
			<path class="st1" d="M62.4,45.9C51,58,42.3,71.1,40.8,71.1c-1.7,0-2.8-11.1-4.6-19.8c-1.4-6.9-3-15.5-6.8-19.9
				c-2.2-2.5-5.8-3.5-8-3.3c0,0,4.6,20.8,6.1,28.5c1.3,6.8,4.6,24.2,11.6,24.2c10,0,22.4-38.9,58.1-55c0,0-0.6-0.3-2.1-0.3
				C84.1,25.5,72.2,35.4,62.4,45.9 M61.6,65.4c-1.9,2.6-4.6,7.4,2,7.4c14.1,0,37.8-20.4,44.3-20.4c4.9,0-11.5,13.1-11.5,15.4
				c0,0.9,3.3,0.8,5,0.4c4.7-1.1,18-14.6,23.2-14.6c2.1,0-3.9,8.6-5,10.3c-1.1,1.9-1.4,2.8,2.5,2.2c3-0.5,14.7-9.9,16.1-9.9
				c0.9,0-6.3,7.3,1.8,7.3c5.4,0,21.9-6.8,21.4-7.2c-0.5-0.3-19.1,6.5-19.1,4.4c0-2.1,5.8-8.5-0.1-8.5c-4.8,0-10.4,2.7-13.1,5.7
				c0,0,5.9-8.3-1.9-8.3c-6.1,0-12.6,4.2-12.6,4.2s3.7-6.6-3.2-6.6c-10.6,0-27.7,14.3-39,18.9c-2.2,0.9-3.2,0.5-1.9-1.2
				c9.1-12.5,20.4-28.5,42-38.1c0,0-0.6-0.3-2.1-0.3C92.8,26.3,71.4,51.7,61.6,65.4"/>
			<path class="st1" d="M175.7,52.1c-1,1.4-1.4,2.7-1.9,4.3c-0.3,0.5-0.4,1.3-1,1.5c-0.4,0.1-1.3,0.8-1.4,0.5
				c-0.5-0.9,0.5-3.4,0.3-5.1c0-0.1-0.1-0.1-0.1,0c-0.5,1.3-0.8,2.5-1,3.8c-0.1,0.6-0.2,1.2-0.1,1.9c0,0.2,0.2,0.4,0.4,0.5
				c0.2,0.1,0.3,0,0.5-0.1c0.8-0.5,2.1-0.9,2.3-1.9c0.3-0.9,1-1.7,1.5-2.6c0.5-0.8,0.6-1.1,0.9-1.9c0.1-0.3,0.1-0.3,0.2-0.6
				c0.1-0.3,0.6-0.4,1-0.6c0,0,0.1-0.1,0.1-0.1C177.3,51.4,176,51.6,175.7,52.1"/>
			<path class="st1" d="M162.3,53.2C162.3,53.2,162.3,53.2,162.3,53.2 M178.7,47.6c-0.8,0-1.6,0.2-2.3,0.5c-2.1,0.9-4,2.1-6.1,3
				c-1.3,0.6-2.7,1.4-4.1,1.7c-0.7,0.2-1.3-0.1-2-0.2c-0.5-0.1-1.4-0.4-1.9-0.5c-0.7,0-1.1,0.8-0.9,1.5c0.4,0.9,1.8,1,2.5,1.5
				c0,0-0.5,2.7,1.3,1.7c0.9-0.7,1.3-0.8,1.8-0.9c1.5-0.2,2.6-0.7,3.9-1.4c0.4-0.4-3,0.7-4.5,1c-0.9,0.2-1.4,0.9-1.7,0.7
				c-0.3-0.1-0.1-1-0.2-1.3c0-0.1,0-0.1-0.1-0.3c-0.4-0.7-1.4-0.7-2.1-1.1c-0.2-0.2-0.2-0.4,0-0.5c0.3-0.2,2.9,1.1,4.2,0.6
				c2.2-0.9,3.9-2.3,6-3.2c1.4-0.6,2.8-1.1,4.2-1.5c1-0.3,2.1-0.5,3.1-0.4c0.4,0,1.2,0.1,1.2,0.4c0,0,0,0.1,0,0.2
				c-0.5,0.9-1.6,1.4-2.5,1.9c-0.1,0,0,0.1,0,0.1c0.7-0.2,1.5-0.4,2.1-0.8c0.5-0.3,1.3-0.9,1-1.7C181.2,47.5,179.7,47.6,178.7,47.6"
				/>
			<path class="st1" d="M169.4,50.3C169.4,50.3,169.4,50.2,169.4,50.3c-0.1-0.5-0.4-0.8-0.7-1c-0.4-0.4-0.8-0.5-1.4-0.8
				c-0.3-0.1-0.1-0.2-0.1-0.2c0.6-0.3,1.5-0.4,2.1-0.4c0.5,0.1,1.9,1,3.2,1.1c0,0,0.1-0.1,0-0.1c-0.9-1.1-2-1.7-3.4-2
				c0,0-0.1,0-0.2,0c-0.3,0.1-0.5,0.3-0.8,0.5c-0.4,0.3-0.8,0.5-1.2,0.6c-0.1,0-0.1,0.1-0.2,0.2c0,0.1,0,0.3,0,0.3
				C167.3,49.5,168.3,50,169.4,50.3"/>
		</g>
	</g>
</g>
</svg>
