<?xml version="1.0" encoding="utf-8"?>
<!-- Generator: Adobe Illustrator 24.1.0, SVG Export Plug-In . SVG Version: 6.00 Build 0)  -->
<svg version="1.1" id="Calque_1" xmlns="http://www.w3.org/2000/svg" xmlns:xlink="http://www.w3.org/1999/xlink" x="0px" y="0px"
	 viewBox="0 0 127.6 102.6" style="enable-background:new 0 0 127.6 102.6;" xml:space="preserve">
<style type="text/css">
	.st0{fill:#141412;}
</style>
<g>
	<path class="st0" d="M16,59.1c-0.5,0-1-0.1-1.4-0.2s-0.7-0.3-0.9-0.5c-0.2-0.2-0.4-0.5-0.5-0.9s-0.1-0.8-0.1-1.3v-6h2.4V56
		c0,0.3,0.1,0.6,0.2,0.7s0.3,0.2,0.6,0.2h6.2v2.3L16,59.1L16,59.1z"/>
	<path class="st0" d="M32.8,50.2v2.3H26c-0.1,0-0.2,0.1-0.2,0.2v1h7v1.8h-7v1.1c0,0.2,0.1,0.2,0.2,0.2h6.8v2.3h-8.2
		c-0.8,0-1.3-0.4-1.3-1.2v-6.5c0-0.8,0.4-1.2,1.3-1.2C24.6,50.2,32.8,50.2,32.8,50.2z"/>
	<path class="st0" d="M46.2,59.3c-0.3,0-0.6-0.1-0.9-0.2c-0.3-0.1-0.5-0.3-0.6-0.6L42,52.9c0-0.1-0.1-0.1-0.2-0.1
		c-0.1,0-0.1,0-0.1,0.1c0,0-0.1,0.1-0.1,0.2v6.1h-2.3v-6.6c0-0.5,0.1-0.9,0.2-1.2c0.1-0.3,0.4-0.6,0.6-0.8c0.2-0.2,0.4-0.3,0.7-0.4
		s0.5-0.2,0.9-0.2c0.6,0,1,0.2,1.4,0.5s0.7,0.7,0.9,1.2l2,4.4c0,0.1,0.1,0.2,0.2,0.2c0.1,0,0.2-0.1,0.2-0.2l2-4.4
		c0.2-0.5,0.5-0.9,0.9-1.2c0.4-0.3,0.8-0.5,1.4-0.5c0.3,0,0.6,0,0.9,0.2c0.3,0.1,0.5,0.2,0.7,0.4c0.3,0.2,0.5,0.5,0.6,0.8
		s0.2,0.7,0.2,1.2v6.6h-2.3v-6.1c0-0.1,0-0.1-0.1-0.2l-0.1-0.1c-0.1,0-0.1,0-0.2,0.1l-2.7,5.6c-0.1,0.3-0.3,0.5-0.6,0.6
		C46.8,59.3,46.5,59.3,46.2,59.3"/>
	<path class="st0" d="M58.9,52.5c-0.4,0-0.7,0.1-1,0.2s-0.5,0.2-0.7,0.4c-0.2,0.2-0.4,0.4-0.5,0.7c-0.1,0.3-0.2,0.5-0.2,0.8
		s0,0.5,0.1,0.8c0.1,0.2,0.2,0.5,0.4,0.6c0.2,0.2,0.4,0.4,0.7,0.5s0.6,0.2,1.1,0.2h1.9c0.4,0,0.8-0.1,1.1-0.2
		c0.3-0.1,0.5-0.3,0.7-0.5s0.3-0.4,0.4-0.6s0.1-0.5,0.1-0.8s-0.1-0.6-0.2-0.8c-0.1-0.3-0.3-0.5-0.5-0.7s-0.4-0.3-0.7-0.4
		c-0.3-0.1-0.6-0.2-1-0.2H58.9z M58.9,59.1c-0.8,0-1.5-0.1-2.1-0.4s-1.1-0.6-1.5-1.1c-0.4-0.4-0.6-0.9-0.8-1.4s-0.3-1.1-0.3-1.7
		c0-0.7,0.1-1.3,0.4-1.8c0.3-0.6,0.6-1.1,1.1-1.5c0.4-0.4,0.9-0.7,1.4-0.9S58.3,50,59,50h1.9c0.7,0,1.4,0.1,1.9,0.3
		c0.5,0.2,1,0.5,1.4,0.9c0.4,0.4,0.8,0.9,1.1,1.5c0.3,0.6,0.4,1.2,0.4,1.8c0,0.6-0.1,1.1-0.3,1.7c-0.2,0.5-0.5,1-0.8,1.4
		c-0.4,0.5-0.9,0.8-1.5,1.1c-0.6,0.3-1.3,0.4-2.1,0.4H58.9z"/>
	<path class="st0" d="M77.9,60.2c0,0.3,0,0.6-0.1,0.9c-0.1,0.2-0.2,0.4-0.4,0.6c-0.2,0.2-0.3,0.3-0.5,0.3c-0.2,0.1-0.4,0.1-0.6,0.1
		c-0.4,0-0.7-0.1-1-0.2s-0.5-0.3-0.7-0.5l-4.9-5.7c-0.1-0.1-0.1-0.1-0.2-0.1s-0.1,0-0.2,0.1c0,0-0.1,0.1-0.1,0.2V62h-2.4v-7.1
		c0-0.4,0.1-0.7,0.2-1s0.2-0.5,0.4-0.7c0.2-0.2,0.4-0.3,0.7-0.4c0.3-0.1,0.5-0.1,0.8-0.1c0.4,0,0.8,0.1,1.1,0.2
		c0.3,0.1,0.6,0.4,0.9,0.7l4.4,5.2l0.1,0.1h0.1c0.1,0,0.2-0.1,0.2-0.2v-3.8H78v5.3H77.9z"/>
	<path class="st0" d="M86.7,54.6c0,0.3,0,0.6-0.1,0.9c-0.1,0.2-0.2,0.4-0.4,0.6c-0.2,0.2-0.3,0.3-0.5,0.3c-0.3,0.1-0.5,0.1-0.7,0.1
		c-0.4,0-0.7-0.1-1-0.2s-0.5-0.3-0.7-0.5l-4.9-5.7C78.3,50,78.3,50,78.2,50s-0.1,0-0.2,0.1c0,0-0.1,0.1-0.1,0.2v4.1h-2.4v-5.1
		c0-0.4,0.1-0.7,0.2-1s0.2-0.5,0.4-0.6c0.2-0.2,0.4-0.3,0.7-0.4c0.3-0.1,0.5-0.1,0.8-0.1c0.4,0,0.8,0.1,1.1,0.2
		c0.3,0.1,0.6,0.4,0.9,0.7l4.4,5.2l0.1,0.1h0.1c0.1,0,0.2-0.1,0.2-0.2v-5.8h2.3C86.7,47.4,86.7,54.6,86.7,54.6z"/>
</g>
<rect x="87.9" y="50.2" class="st0" width="2.4" height="9"/>
<g>
	<path class="st0" d="M101.1,50.2v2.3h-6.8c-0.2,0-0.2,0.1-0.2,0.3v1h7v1.7h-7v1.1c0,0.2,0.1,0.2,0.2,0.2h6.8v2.3h-8.2
		c-0.8,0-1.3-0.4-1.3-1.2v-6.5c0-0.8,0.4-1.2,1.3-1.2C92.9,50.2,101.1,50.2,101.1,50.2z"/>
	<path class="st0" d="M108.8,53.9c0.2,0,0.3,0,0.4-0.1s0.2-0.1,0.3-0.2c0.1-0.1,0.2-0.3,0.2-0.5s-0.1-0.4-0.2-0.5
		c-0.1-0.2-0.4-0.2-0.7-0.2h-4c-0.1,0-0.2,0.1-0.2,0.2v1.3C104.6,53.9,108.8,53.9,108.8,53.9z M104.6,59.1h-2.4v-8.4
		c0-0.4,0.2-0.6,0.6-0.6h6.4c0.6,0,1,0.1,1.4,0.2c0.4,0.2,0.7,0.4,0.9,0.6c0.2,0.2,0.4,0.5,0.5,0.8s0.2,0.6,0.2,1s-0.1,0.7-0.2,1
		s-0.3,0.6-0.7,0.8c0.3,0.2,0.5,0.4,0.7,0.7c0.1,0.3,0.2,0.7,0.2,1.2v1.8c0,0.2,0,0.4,0,0.5s0,0.2,0,0.4h-2.4c0-0.2,0-0.4,0-0.6
		v-1.8c0-0.3-0.1-0.5-0.2-0.6c-0.2-0.1-0.4-0.2-0.8-0.2h-4.2V59.1z"/>
	<path class="st0" d="M12.8,44C12.7,44,12.7,44,12.8,44c0-0.1-0.1-0.1-0.1-0.2h1.1v0.1l1.1,2.5c0,0,0,0.1,0.1,0.1h0.1h0.1
		c0,0,0,0,0.1-0.1l1.1-2.5v-0.1h1.1v0.1V44l-1.4,2.9c-0.1,0.2-0.2,0.4-0.4,0.5c-0.1,0.1-0.4,0.1-0.6,0.1c-0.5,0-0.8-0.2-1-0.7
		L12.8,44z"/>
	<path class="st0" d="M21,46c0,0.1-0.1,0.2-0.2,0.3c-0.1,0.1-0.2,0.2-0.3,0.2c-0.1,0-0.2,0-0.4,0h-0.8c-0.2,0-0.3,0-0.4-0.1
		c-0.1,0-0.2-0.1-0.3-0.2c-0.1-0.1-0.1-0.2-0.2-0.3c0-0.1-0.1-0.2-0.1-0.3c0-0.1,0-0.2,0.1-0.3c0-0.1,0.1-0.2,0.2-0.3
		c0.1-0.1,0.2-0.1,0.3-0.2c0.1,0,0.2-0.1,0.4-0.1h0.8c0.2,0,0.3,0,0.4,0.1c0.1,0,0.2,0.1,0.3,0.2c0.1,0.1,0.1,0.2,0.2,0.3
		c0,0.1,0.1,0.2,0.1,0.3C21.1,45.8,21,45.9,21,46 M21.9,44.9c-0.1-0.2-0.2-0.4-0.4-0.6c-0.2-0.1-0.3-0.3-0.6-0.3
		c-0.2-0.1-0.5-0.1-0.8-0.1h-0.8c-0.3,0-0.5,0-0.8,0.1c-0.2,0.1-0.4,0.2-0.6,0.3c-0.2,0.2-0.3,0.4-0.4,0.6s-0.2,0.5-0.2,0.7
		s0,0.5,0.1,0.7s0.2,0.4,0.3,0.5c0.2,0.2,0.4,0.3,0.6,0.4s0.5,0.2,0.8,0.2h1c0.3,0,0.6-0.1,0.8-0.2c0.2-0.1,0.4-0.2,0.6-0.4
		c0.1-0.2,0.3-0.3,0.3-0.5c0.1-0.2,0.1-0.4,0.1-0.7C22,45.4,22,45.1,21.9,44.9"/>
	<path class="st0" d="M21.9,44C21.9,44,21.8,43.9,21.9,44c-0.1-0.1-0.1-0.1-0.1-0.1H23c0,0,0,0,0,0.1c0,0,0,0,0.1,0.1l0.9,1
		c0,0,0,0,0.1,0h0.1l0.9-1l0.1-0.1h1.2c0,0,0,0,0,0.1s0,0-0.1,0.1l-1.7,1.9v1.6h-1V46L21.9,44z"/>
	<path class="st0" d="M27.1,46.1l0.5-1.3c0,0,0-0.1,0.1-0.1h0.1h0.1c0,0,0.1,0,0.1,0.1l0.5,1.3H27.1z M30.2,47.4
		C30.2,47.3,30.1,47.3,30.2,47.4l-1.3-2.9c-0.1-0.2-0.2-0.4-0.4-0.5c-0.2-0.1-0.4-0.2-0.6-0.2c-0.3,0-0.5,0.1-0.6,0.2
		c-0.2,0.1-0.3,0.3-0.4,0.5l-1.3,2.8v0.1v0.1h1.1c0,0,0,0,0-0.1c0,0,0,0,0-0.1l0.2-0.4H29l0.2,0.4c0,0,0,0,0,0.1c0,0,0,0,0,0.1
		L30.2,47.4L30.2,47.4"/>
	<path class="st0" d="M32.1,47.4c-0.3,0-0.6-0.1-0.8-0.2s-0.4-0.2-0.6-0.4c-0.1-0.2-0.3-0.3-0.3-0.5c-0.1-0.2-0.1-0.4-0.1-0.7
		c0-0.3,0.1-0.5,0.2-0.7c0.1-0.2,0.2-0.4,0.4-0.6c0.2-0.1,0.3-0.3,0.6-0.3c0.2-0.1,0.5-0.1,0.8-0.1h1.9v0.9h-2.1
		c-0.2,0-0.3,0-0.4,0.1c-0.1,0-0.2,0.1-0.3,0.2s-0.1,0.2-0.2,0.3c0,0.1-0.1,0.2-0.1,0.3c0,0.1,0,0.2,0.1,0.3c0,0.1,0.1,0.2,0.2,0.3
		c0.1,0.1,0.2,0.2,0.3,0.2c0.1,0,0.2,0,0.4,0H33c0,0,0.1,0,0.1-0.1v-1h1v1.7c0,0.2-0.1,0.2-0.2,0.2h-1.8V47.4z"/>
	<path class="st0" d="M38.5,43.9v0.9h-2.7c-0.1,0-0.1,0-0.1,0.1v0.4h2.8V46h-2.8v0.4c0,0.1,0,0.1,0.1,0.1h2.7v0.9h-3.3
		c-0.3,0-0.5-0.2-0.5-0.5v-2.6c0-0.3,0.2-0.5,0.5-0.5L38.5,43.9L38.5,43.9z"/>
	<path class="st0" d="M42.8,44.8h-2.6c-0.1,0-0.1,0-0.1,0H40c0,0-0.1,0.1-0.1,0.2s0,0.1,0.1,0.2c0,0,0,0,0.1,0h0.1h1.6
		c0.2,0,0.4,0,0.5,0.1s0.3,0.1,0.4,0.2c0.1,0.1,0.2,0.2,0.2,0.3c0.1,0.1,0.1,0.3,0.1,0.4s0,0.3-0.1,0.4c0,0.1-0.1,0.2-0.2,0.3
		c-0.1,0.1-0.2,0.2-0.4,0.3c-0.1,0.1-0.3,0.1-0.5,0.1h-2.7v-0.8h2.6c0.1,0,0.1,0,0.2,0c0,0,0.1,0,0.1-0.1c0,0,0.1-0.1,0.1-0.2
		s0-0.1-0.1-0.2c0,0-0.1,0-0.1-0.1c0,0-0.1,0-0.2,0h-1.5c-0.2,0-0.4,0-0.6-0.1c-0.1-0.1-0.3-0.1-0.4-0.2c-0.1-0.1-0.2-0.2-0.2-0.3
		c-0.1-0.1-0.1-0.3-0.1-0.4s0-0.3,0.1-0.4s0.1-0.2,0.2-0.3c0.1-0.1,0.2-0.2,0.4-0.2c0.1-0.1,0.3-0.1,0.6-0.1h2.6
		C42.8,43.9,42.8,44.8,42.8,44.8z"/>
</g>
</svg>
