<?xml version="1.0" encoding="UTF-8" standalone="no"?>
<!-- Generator: Adobe Illustrator 24.1.0, SVG Export Plug-In . SVG Version: 6.00 Build 0)  -->

<svg
   version="1.1"
   id="Calque_1"
   x="0px"
   y="0px"
   viewBox="0 0 99.500001 18.3"
   xml:space="preserve"
   sodipodi:docname="Voyages_Le_Monnier_typo_blanc.svg"
   width="99.5"
   height="18.299999"
   inkscape:version="1.3.2 (091e20e, 2023-11-25)"
   xmlns:inkscape="http://www.inkscape.org/namespaces/inkscape"
   xmlns:sodipodi="http://sodipodi.sourceforge.net/DTD/sodipodi-0.dtd"
   xmlns="http://www.w3.org/2000/svg"
   xmlns:svg="http://www.w3.org/2000/svg"><defs
   id="defs15" /><sodipodi:namedview
   id="namedview15"
   pagecolor="#ffffff"
   bordercolor="#000000"
   borderopacity="0.25"
   inkscape:showpageshadow="2"
   inkscape:pageopacity="0.0"
   inkscape:pagecheckerboard="true"
   inkscape:deskcolor="#d1d1d1"
   inkscape:zoom="2.300195"
   inkscape:cx="53.691101"
   inkscape:cy="44.996186"
   inkscape:window-width="1680"
   inkscape:window-height="952"
   inkscape:window-x="1977"
   inkscape:window-y="724"
   inkscape:window-maximized="0"
   inkscape:current-layer="Calque_1" />
<style
   type="text/css"
   id="style1">
	.st0{fill:#FFFFFF;}
</style>
<g
   id="g6"
   transform="translate(-12.7,-43.8)">
	<path
   class="st0"
   d="m 16,59.1 c -0.5,0 -1,-0.1 -1.4,-0.2 -0.4,-0.1 -0.7,-0.3 -0.9,-0.5 -0.2,-0.2 -0.4,-0.5 -0.5,-0.9 -0.1,-0.4 -0.1,-0.8 -0.1,-1.3 v -6 h 2.4 V 56 c 0,0.3 0.1,0.6 0.2,0.7 0.1,0.1 0.3,0.2 0.6,0.2 h 6.2 v 2.3 z"
   id="path1" />
	<path
   class="st0"
   d="m 32.8,50.2 v 2.3 H 26 c -0.1,0 -0.2,0.1 -0.2,0.2 v 1 h 7 v 1.8 h -7 v 1.1 c 0,0.2 0.1,0.2 0.2,0.2 h 6.8 v 2.3 h -8.2 c -0.8,0 -1.3,-0.4 -1.3,-1.2 v -6.5 c 0,-0.8 0.4,-1.2 1.3,-1.2 0,0 8.2,0 8.2,0 z"
   id="path2" />
	<path
   class="st0"
   d="m 46.2,59.3 c -0.3,0 -0.6,-0.1 -0.9,-0.2 C 45,59 44.8,58.8 44.7,58.5 L 42,52.9 c 0,-0.1 -0.1,-0.1 -0.2,-0.1 -0.1,0 -0.1,0 -0.1,0.1 0,0 -0.1,0.1 -0.1,0.2 v 6.1 h -2.3 v -6.6 c 0,-0.5 0.1,-0.9 0.2,-1.2 0.1,-0.3 0.4,-0.6 0.6,-0.8 0.2,-0.2 0.4,-0.3 0.7,-0.4 0.3,-0.1 0.5,-0.2 0.9,-0.2 0.6,0 1,0.2 1.4,0.5 0.4,0.3 0.7,0.7 0.9,1.2 l 2,4.4 c 0,0.1 0.1,0.2 0.2,0.2 0.1,0 0.2,-0.1 0.2,-0.2 l 2,-4.4 c 0.2,-0.5 0.5,-0.9 0.9,-1.2 0.4,-0.3 0.8,-0.5 1.4,-0.5 0.3,0 0.6,0 0.9,0.2 0.3,0.1 0.5,0.2 0.7,0.4 0.3,0.2 0.5,0.5 0.6,0.8 0.1,0.3 0.2,0.7 0.2,1.2 v 6.6 h -2.3 v -6.1 c 0,-0.1 0,-0.1 -0.1,-0.2 l -0.1,-0.1 c -0.1,0 -0.1,0 -0.2,0.1 l -2.7,5.6 c -0.1,0.3 -0.3,0.5 -0.6,0.6 -0.3,0.2 -0.6,0.2 -0.9,0.2"
   id="path3" />
	<path
   class="st0"
   d="m 58.9,52.5 c -0.4,0 -0.7,0.1 -1,0.2 -0.3,0.1 -0.5,0.2 -0.7,0.4 -0.2,0.2 -0.4,0.4 -0.5,0.7 -0.1,0.3 -0.2,0.5 -0.2,0.8 0,0.3 0,0.5 0.1,0.8 0.1,0.2 0.2,0.5 0.4,0.6 0.2,0.2 0.4,0.4 0.7,0.5 0.3,0.1 0.6,0.2 1.1,0.2 h 1.9 c 0.4,0 0.8,-0.1 1.1,-0.2 0.3,-0.1 0.5,-0.3 0.7,-0.5 0.2,-0.2 0.3,-0.4 0.4,-0.6 C 63,55.2 63,54.9 63,54.6 63,54.3 62.9,54 62.8,53.8 62.7,53.5 62.5,53.3 62.3,53.1 62.1,52.9 61.9,52.8 61.6,52.7 61.3,52.6 61,52.5 60.6,52.5 Z m 0,6.6 c -0.8,0 -1.5,-0.1 -2.1,-0.4 -0.6,-0.3 -1.1,-0.6 -1.5,-1.1 -0.4,-0.4 -0.6,-0.9 -0.8,-1.4 -0.2,-0.5 -0.3,-1.1 -0.3,-1.7 0,-0.7 0.1,-1.3 0.4,-1.8 0.3,-0.6 0.6,-1.1 1.1,-1.5 0.4,-0.4 0.9,-0.7 1.4,-0.9 C 57.6,50.1 58.3,50 59,50 h 1.9 c 0.7,0 1.4,0.1 1.9,0.3 0.5,0.2 1,0.5 1.4,0.9 0.4,0.4 0.8,0.9 1.1,1.5 0.3,0.6 0.4,1.2 0.4,1.8 0,0.6 -0.1,1.1 -0.3,1.7 -0.2,0.5 -0.5,1 -0.8,1.4 -0.4,0.5 -0.9,0.8 -1.5,1.1 -0.6,0.3 -1.3,0.4 -2.1,0.4 z"
   id="path4" />
	<path
   class="st0"
   d="m 77.9,60.2 c 0,0.3 0,0.6 -0.1,0.9 -0.1,0.2 -0.2,0.4 -0.4,0.6 -0.2,0.2 -0.3,0.3 -0.5,0.3 -0.2,0.1 -0.4,0.1 -0.6,0.1 -0.4,0 -0.7,-0.1 -1,-0.2 -0.3,-0.1 -0.5,-0.3 -0.7,-0.5 l -4.9,-5.7 c -0.1,-0.1 -0.1,-0.1 -0.2,-0.1 -0.1,0 -0.1,0 -0.2,0.1 0,0 -0.1,0.1 -0.1,0.2 V 62 h -2.4 v -7.1 c 0,-0.4 0.1,-0.7 0.2,-1 0.1,-0.3 0.2,-0.5 0.4,-0.7 0.2,-0.2 0.4,-0.3 0.7,-0.4 0.3,-0.1 0.5,-0.1 0.8,-0.1 0.4,0 0.8,0.1 1.1,0.2 0.3,0.1 0.6,0.4 0.9,0.7 l 4.4,5.2 0.1,0.1 h 0.1 c 0.1,0 0.2,-0.1 0.2,-0.2 V 54.9 H 78 v 5.3 z"
   id="path5" />
	<path
   class="st0"
   d="m 86.7,54.6 c 0,0.3 0,0.6 -0.1,0.9 -0.1,0.2 -0.2,0.4 -0.4,0.6 -0.2,0.2 -0.3,0.3 -0.5,0.3 -0.3,0.1 -0.5,0.1 -0.7,0.1 -0.4,0 -0.7,-0.1 -1,-0.2 C 83.7,56.2 83.5,56 83.3,55.8 L 78.4,50.1 C 78.3,50 78.3,50 78.2,50 c -0.1,0 -0.1,0 -0.2,0.1 0,0 -0.1,0.1 -0.1,0.2 v 4.1 h -2.4 v -5.1 c 0,-0.4 0.1,-0.7 0.2,-1 0.1,-0.3 0.2,-0.5 0.4,-0.6 0.2,-0.2 0.4,-0.3 0.7,-0.4 0.3,-0.1 0.5,-0.1 0.8,-0.1 0.4,0 0.8,0.1 1.1,0.2 0.3,0.1 0.6,0.4 0.9,0.7 l 4.4,5.2 0.1,0.1 h 0.1 c 0.1,0 0.2,-0.1 0.2,-0.2 v -5.8 h 2.3 c 0,0 0,7.2 0,7.2 z"
   id="path6" />
</g>
<rect
   x="75.200005"
   y="6.4000006"
   class="st0"
   width="2.4000001"
   height="9"
   id="rect6" />
<g
   id="g15"
   transform="translate(-12.7,-43.8)">
	<path
   class="st0"
   d="m 101.1,50.2 v 2.3 h -6.8 c -0.2,0 -0.2,0.1 -0.2,0.3 v 1 h 7 v 1.7 h -7 v 1.1 c 0,0.2 0.1,0.2 0.2,0.2 h 6.8 v 2.3 h -8.2 c -0.8,0 -1.3,-0.4 -1.3,-1.2 v -6.5 c 0,-0.8 0.4,-1.2 1.3,-1.2 0,0 8.2,0 8.2,0 z"
   id="path7" />
	<path
   class="st0"
   d="m 108.8,53.9 c 0.2,0 0.3,0 0.4,-0.1 0.1,-0.1 0.2,-0.1 0.3,-0.2 0.1,-0.1 0.2,-0.3 0.2,-0.5 0,-0.2 -0.1,-0.4 -0.2,-0.5 -0.1,-0.2 -0.4,-0.2 -0.7,-0.2 h -4 c -0.1,0 -0.2,0.1 -0.2,0.2 v 1.3 c 0,0 4.2,0 4.2,0 z m -4.2,5.2 h -2.4 v -8.4 c 0,-0.4 0.2,-0.6 0.6,-0.6 h 6.4 c 0.6,0 1,0.1 1.4,0.2 0.4,0.2 0.7,0.4 0.9,0.6 0.2,0.2 0.4,0.5 0.5,0.8 0.1,0.3 0.2,0.6 0.2,1 0,0.4 -0.1,0.7 -0.2,1 -0.1,0.3 -0.3,0.6 -0.7,0.8 0.3,0.2 0.5,0.4 0.7,0.7 0.1,0.3 0.2,0.7 0.2,1.2 v 1.8 c 0,0.2 0,0.4 0,0.5 0,0.1 0,0.2 0,0.4 h -2.4 c 0,-0.2 0,-0.4 0,-0.6 v -1.8 c 0,-0.3 -0.1,-0.5 -0.2,-0.6 -0.2,-0.1 -0.4,-0.2 -0.8,-0.2 h -4.2 z"
   id="path8" />
	<path
   class="st0"
   d="m 12.8,44 c -0.1,0 -0.1,0 0,0 0,-0.1 -0.1,-0.1 -0.1,-0.2 h 1.1 v 0.1 l 1.1,2.5 c 0,0 0,0.1 0.1,0.1 h 0.1 0.1 c 0,0 0,0 0.1,-0.1 l 1.1,-2.5 v -0.1 h 1.1 v 0.1 0.1 l -1.4,2.9 c -0.1,0.2 -0.2,0.4 -0.4,0.5 -0.1,0.1 -0.4,0.1 -0.6,0.1 -0.5,0 -0.8,-0.2 -1,-0.7 z"
   id="path9" />
	<path
   class="st0"
   d="m 21,46 c 0,0.1 -0.1,0.2 -0.2,0.3 -0.1,0.1 -0.2,0.2 -0.3,0.2 -0.1,0 -0.2,0 -0.4,0 h -0.8 c -0.2,0 -0.3,0 -0.4,-0.1 -0.1,0 -0.2,-0.1 -0.3,-0.2 -0.1,-0.1 -0.1,-0.2 -0.2,-0.3 0,-0.1 -0.1,-0.2 -0.1,-0.3 0,-0.1 0,-0.2 0.1,-0.3 0,-0.1 0.1,-0.2 0.2,-0.3 0.1,-0.1 0.2,-0.1 0.3,-0.2 0.1,0 0.2,-0.1 0.4,-0.1 h 0.8 c 0.2,0 0.3,0 0.4,0.1 0.1,0 0.2,0.1 0.3,0.2 0.1,0.1 0.1,0.2 0.2,0.3 0,0.1 0.1,0.2 0.1,0.3 0,0.2 -0.1,0.3 -0.1,0.4 m 0.9,-1.1 C 21.8,44.7 21.7,44.5 21.5,44.3 21.3,44.2 21.2,44 20.9,44 20.7,43.9 20.4,43.9 20.1,43.9 h -0.8 c -0.3,0 -0.5,0 -0.8,0.1 -0.2,0.1 -0.4,0.2 -0.6,0.3 -0.2,0.2 -0.3,0.4 -0.4,0.6 -0.1,0.2 -0.2,0.5 -0.2,0.7 0,0.2 0,0.5 0.1,0.7 0.1,0.2 0.2,0.4 0.3,0.5 0.2,0.2 0.4,0.3 0.6,0.4 0.2,0.1 0.5,0.2 0.8,0.2 h 1 c 0.3,0 0.6,-0.1 0.8,-0.2 0.2,-0.1 0.4,-0.2 0.6,-0.4 0.1,-0.2 0.3,-0.3 0.3,-0.5 0.1,-0.2 0.1,-0.4 0.1,-0.7 0.1,-0.2 0.1,-0.5 0,-0.7"
   id="path10" />
	<path
   class="st0"
   d="m 21.9,44 c 0,0 -0.1,-0.1 0,0 -0.1,-0.1 -0.1,-0.1 -0.1,-0.1 H 23 c 0,0 0,0 0,0.1 0,0 0,0 0.1,0.1 l 0.9,1 c 0,0 0,0 0.1,0 h 0.1 l 0.9,-1 0.1,-0.1 h 1.2 c 0,0 0,0 0,0.1 0,0.1 0,0 -0.1,0.1 l -1.7,1.9 v 1.6 h -1 V 46 Z"
   id="path11" />
	<path
   class="st0"
   d="m 27.1,46.1 0.5,-1.3 c 0,0 0,-0.1 0.1,-0.1 h 0.1 0.1 c 0,0 0.1,0 0.1,0.1 l 0.5,1.3 z m 3.1,1.3 c 0,-0.1 -0.1,-0.1 0,0 l -1.3,-2.9 c -0.1,-0.2 -0.2,-0.4 -0.4,-0.5 -0.2,-0.1 -0.4,-0.2 -0.6,-0.2 -0.3,0 -0.5,0.1 -0.6,0.2 -0.2,0.1 -0.3,0.3 -0.4,0.5 l -1.3,2.8 v 0.1 0.1 h 1.1 c 0,0 0,0 0,-0.1 0,0 0,0 0,-0.1 l 0.2,-0.4 H 29 l 0.2,0.4 c 0,0 0,0 0,0.1 0,0 0,0 0,0.1 l 1,-0.1 v 0"
   id="path12" />
	<path
   class="st0"
   d="m 32.1,47.4 c -0.3,0 -0.6,-0.1 -0.8,-0.2 -0.2,-0.1 -0.4,-0.2 -0.6,-0.4 -0.1,-0.2 -0.3,-0.3 -0.3,-0.5 -0.1,-0.2 -0.1,-0.4 -0.1,-0.7 0,-0.3 0.1,-0.5 0.2,-0.7 0.1,-0.2 0.2,-0.4 0.4,-0.6 0.2,-0.1 0.3,-0.3 0.6,-0.3 0.2,-0.1 0.5,-0.1 0.8,-0.1 h 1.9 v 0.9 h -2.1 c -0.2,0 -0.3,0 -0.4,0.1 -0.1,0 -0.2,0.1 -0.3,0.2 -0.1,0.1 -0.1,0.2 -0.2,0.3 0,0.1 -0.1,0.2 -0.1,0.3 0,0.1 0,0.2 0.1,0.3 0,0.1 0.1,0.2 0.2,0.3 0.1,0.1 0.2,0.2 0.3,0.2 0.1,0 0.2,0 0.4,0 H 33 c 0,0 0.1,0 0.1,-0.1 v -1 h 1 v 1.7 c 0,0.2 -0.1,0.2 -0.2,0.2 h -1.8 z"
   id="path13" />
	<path
   class="st0"
   d="m 38.5,43.9 v 0.9 h -2.7 c -0.1,0 -0.1,0 -0.1,0.1 v 0.4 h 2.8 V 46 h -2.8 v 0.4 c 0,0.1 0,0.1 0.1,0.1 h 2.7 v 0.9 h -3.3 c -0.3,0 -0.5,-0.2 -0.5,-0.5 v -2.6 c 0,-0.3 0.2,-0.5 0.5,-0.5 z"
   id="path14" />
	<path
   class="st0"
   d="m 42.8,44.8 h -2.6 c -0.1,0 -0.1,0 -0.1,0 H 40 c 0,0 -0.1,0.1 -0.1,0.2 0,0.1 0,0.1 0.1,0.2 0,0 0,0 0.1,0 h 0.1 1.6 c 0.2,0 0.4,0 0.5,0.1 0.1,0.1 0.3,0.1 0.4,0.2 0.1,0.1 0.2,0.2 0.2,0.3 0.1,0.1 0.1,0.3 0.1,0.4 0,0.1 0,0.3 -0.1,0.4 0,0.1 -0.1,0.2 -0.2,0.3 -0.1,0.1 -0.2,0.2 -0.4,0.3 -0.1,0.1 -0.3,0.1 -0.5,0.1 h -2.7 v -0.8 h 2.6 c 0.1,0 0.1,0 0.2,0 0,0 0.1,0 0.1,-0.1 0,0 0.1,-0.1 0.1,-0.2 0,-0.1 0,-0.1 -0.1,-0.2 0,0 -0.1,0 -0.1,-0.1 0,0 -0.1,0 -0.2,0 h -1.5 c -0.2,0 -0.4,0 -0.6,-0.1 C 39.5,45.7 39.3,45.7 39.2,45.6 39.1,45.5 39,45.4 39,45.3 38.9,45.2 38.9,45 38.9,44.9 c 0,-0.1 0,-0.3 0.1,-0.4 0.1,-0.1 0.1,-0.2 0.2,-0.3 0.1,-0.1 0.2,-0.2 0.4,-0.2 0.1,-0.1 0.3,-0.1 0.6,-0.1 h 2.6 c 0,0 0,0.9 0,0.9 z"
   id="path15" />
</g>
</svg>
