<?xml version="1.0" encoding="UTF-8" standalone="no"?>
<!-- Generator: Adobe Illustrator 24.1.0, SVG Export Plug-In . SVG Version: 6.00 Build 0)  -->

<svg
   version="1.1"
   id="Calque_1"
   x="0px"
   y="0px"
   viewBox="0 0 118.6 80.6"
   xml:space="preserve"
   sodipodi:docname="Voyages_Le_Monnier_blanc.svg"
   width="118.6"
   height="80.599998"
   inkscape:version="1.3.2 (091e20e, 2023-11-25)"
   xmlns:inkscape="http://www.inkscape.org/namespaces/inkscape"
   xmlns:sodipodi="http://sodipodi.sourceforge.net/DTD/sodipodi-0.dtd"
   xmlns="http://www.w3.org/2000/svg"
   xmlns:svg="http://www.w3.org/2000/svg"><defs
   id="defs16" /><sodipodi:namedview
   id="namedview16"
   pagecolor="#ffffff"
   bordercolor="#000000"
   borderopacity="0.25"
   inkscape:showpageshadow="2"
   inkscape:pageopacity="0.0"
   inkscape:pagecheckerboard="0"
   inkscape:deskcolor="#d1d1d1"
   inkscape:document-units="px"
   inkscape:zoom="2.300195"
   inkscape:cx="47.387287"
   inkscape:cy="5.8690677"
   inkscape:window-width="1472"
   inkscape:window-height="962"
   inkscape:window-x="202"
   inkscape:window-y="25"
   inkscape:window-maximized="0"
   inkscape:current-layer="Calque_1" />
<style
   type="text/css"
   id="style1">
	.st0{fill:#FFFFFF;}
</style>

<g
   id="g7"
   transform="translate(-126.07627,3.0432203)"
   style="fill:none">
	<path
   class="st0"
   d="m 145.84576,57.558475 c -0.5,0 -1,-0.1 -1.4,-0.2 -0.4,-0.1 -0.7,-0.3 -0.9,-0.5 -0.2,-0.2 -0.4,-0.5 -0.5,-0.9 -0.1,-0.4 -0.1,-0.8 -0.1,-1.3 v -6 h 2.4 v 5.8 c 0,0.3 0.1,0.6 0.2,0.7 0.1,0.1 0.3,0.2 0.6,0.2 h 6.2 v 2.3 h -6.5 z"
   id="path2"
   style="fill:none" />
	<path
   class="st0"
   d="m 162.64576,48.658475 v 2.3 h -6.8 c -0.1,0 -0.2,0.1 -0.2,0.2 v 1 h 7 v 1.8 h -7 v 1.1 c 0,0.2 0.1,0.2 0.2,0.2 h 6.8 v 2.3 h -8.2 c -0.8,0 -1.3,-0.4 -1.3,-1.2 v -6.5 c 0,-0.8 0.4,-1.2 1.3,-1.2 z"
   id="path3"
   style="fill:none" />
	<path
   class="st0"
   d="m 176.04576,57.758475 c -0.3,0 -0.6,-0.1 -0.9,-0.2 -0.3,-0.1 -0.5,-0.3 -0.6,-0.6 l -2.7,-5.6 c 0,-0.1 -0.1,-0.1 -0.2,-0.1 -0.1,0 -0.1,0 -0.1,0.1 0,0 -0.1,0.1 -0.1,0.2 v 6.1 h -2.3 v -6.6 c 0,-0.5 0.1,-0.9 0.2,-1.2 0.1,-0.3 0.4,-0.6 0.6,-0.8 0.2,-0.2 0.4,-0.3 0.7,-0.4 0.3,-0.1 0.5,-0.2 0.9,-0.2 0.6,0 1,0.2 1.4,0.5 0.4,0.3 0.7,0.7 0.9,1.2 l 2,4.4 c 0,0.1 0.1,0.2 0.2,0.2 0.1,0 0.2,-0.1 0.2,-0.2 l 2,-4.4 c 0.2,-0.5 0.5,-0.9 0.9,-1.2 0.4,-0.3 0.8,-0.5 1.4,-0.5 0.3,0 0.6,0 0.9,0.2 0.3,0.1 0.5,0.2 0.7,0.4 0.3,0.2 0.5,0.5 0.6,0.8 0.1,0.3 0.2,0.7 0.2,1.2 v 6.6 h -2.3 v -6.1 c 0,-0.1 0,-0.1 -0.1,-0.2 0,0 -0.1,-0.1 -0.1,-0.1 -0.1,0 -0.1,0 -0.2,0.1 l -2.7,5.6 c -0.1,0.3 -0.3,0.5 -0.6,0.6 -0.3,0.2 -0.6,0.2 -0.9,0.2"
   id="path4"
   style="fill:none" />
	<path
   class="st0"
   d="m 188.74576,50.958475 c -0.4,0 -0.7,0.1 -1,0.2 -0.3,0.1 -0.5,0.2 -0.7,0.4 -0.2,0.2 -0.4,0.4 -0.5,0.7 -0.1,0.3 -0.2,0.5 -0.2,0.8 0,0.3 0,0.5 0.1,0.8 0.1,0.2 0.2,0.5 0.4,0.6 0.2,0.2 0.4,0.4 0.7,0.5 0.3,0.1 0.6,0.2 1.1,0.2 h 1.9 c 0.4,0 0.8,-0.1 1.1,-0.2 0.3,-0.1 0.5,-0.3 0.7,-0.5 0.2,-0.2 0.3,-0.4 0.4,-0.6 0.1,-0.2 0.1,-0.5 0.1,-0.8 0,-0.3 -0.1,-0.6 -0.2,-0.8 -0.1,-0.3 -0.3,-0.5 -0.5,-0.7 -0.2,-0.2 -0.4,-0.3 -0.7,-0.4 -0.3,-0.1 -0.6,-0.2 -1,-0.2 z m 0,6.6 c -0.8,0 -1.5,-0.1 -2.1,-0.4 -0.6,-0.3 -1.1,-0.6 -1.5,-1.1 -0.4,-0.4 -0.6,-0.9 -0.8,-1.4 -0.2,-0.5 -0.3,-1.1 -0.3,-1.7 0,-0.7 0.1,-1.3 0.4,-1.8 0.3,-0.6 0.6,-1.1 1.1,-1.5 0.4,-0.4 0.9,-0.7 1.4,-0.9 0.5,-0.2 1.2,-0.3 1.9,-0.3 h 1.9 c 0.7,0 1.4,0.1 1.9,0.3 0.5,0.2 1,0.5 1.4,0.9 0.4,0.4 0.8,0.9 1.1,1.5 0.3,0.6 0.4,1.2 0.4,1.8 0,0.6 -0.1,1.1 -0.3,1.7 -0.2,0.5 -0.5,1 -0.8,1.4 -0.4,0.5 -0.9,0.8 -1.5,1.1 -0.6,0.3 -1.3,0.4 -2.1,0.4 z"
   id="path5"
   style="fill:none" />
	<path
   class="st0"
   d="m 207.74576,58.658475 c 0,0.3 0,0.6 -0.1,0.9 -0.1,0.2 -0.2,0.4 -0.4,0.6 -0.2,0.2 -0.3,0.3 -0.5,0.3 -0.2,0.1 -0.4,0.1 -0.6,0.1 -0.4,0 -0.7,-0.1 -1,-0.2 -0.3,-0.1 -0.5,-0.3 -0.7,-0.5 l -4.9,-5.7 c -0.1,-0.1 -0.1,-0.1 -0.2,-0.1 -0.1,0 -0.1,0 -0.2,0.1 0,0 -0.1,0.1 -0.1,0.2 v 6.1 h -2.4 v -7.1 c 0,-0.4 0.1,-0.7 0.2,-1 0.1,-0.3 0.2,-0.5 0.4,-0.7 0.2,-0.2 0.4,-0.3 0.7,-0.4 0.3,-0.1 0.5,-0.1 0.8,-0.1 0.4,0 0.8,0.1 1.1,0.2 0.3,0.1 0.6,0.4 0.9,0.7 l 4.4,5.2 c 0,0 0.1,0.1 0.1,0.1 0,0 0.1,0 0.1,0 0.1,0 0.2,-0.1 0.2,-0.2 v -3.8 h 2.3 v 5.3 z"
   id="path6"
   style="fill:none" />
	<path
   class="st0"
   d="m 216.54576,53.058475 c 0,0.3 0,0.6 -0.1,0.9 -0.1,0.2 -0.2,0.4 -0.4,0.6 -0.2,0.2 -0.3,0.3 -0.5,0.3 -0.3,0.1 -0.5,0.1 -0.7,0.1 -0.4,0 -0.7,-0.1 -1,-0.2 -0.3,-0.1 -0.5,-0.3 -0.7,-0.5 l -4.9,-5.7 c -0.1,-0.1 -0.1,-0.1 -0.2,-0.1 -0.1,0 -0.1,0 -0.2,0.1 0,0 -0.1,0.1 -0.1,0.2 v 4.1 h -2.4 v -5.1 c 0,-0.4 0.1,-0.7 0.2,-1 0.1,-0.3 0.2,-0.5 0.4,-0.6 0.2,-0.2 0.4,-0.3 0.7,-0.4 0.3,-0.1 0.5,-0.1 0.8,-0.1 0.4,0 0.8,0.1 1.1,0.2 0.3,0.1 0.6,0.4 0.9,0.7 l 4.4,5.2 c 0,0 0.1,0.1 0.1,0.1 0,0 0.1,0 0.1,0 0.1,0 0.2,-0.1 0.2,-0.2 v -5.8 h 2.3 z"
   id="path7"
   style="fill:none" />
</g>
<rect
   x="91.669495"
   y="51.701691"
   class="st0"
   width="2.4000001"
   height="9"
   id="rect7"
   style="fill:none" />
<g
   id="g16"
   transform="translate(0.86949082,-19.998305)"
   style="fill:none">
	<path
   class="st0"
   d="M 104,71.7 V 74 H 97.2 C 97,74 97,74.1 97,74.3 v 1 h 7 V 77 h -7 v 1.1 c 0,0.2 0.1,0.2 0.2,0.2 h 6.8 v 2.3 h -8.2 c -0.8,0 -1.3,-0.4 -1.3,-1.2 v -6.5 c 0,-0.8 0.4,-1.2 1.3,-1.2 z"
   id="path8"
   style="fill:none" />
	<path
   class="st0"
   d="m 111.7,75.4 c 0.2,0 0.3,0 0.4,-0.1 0.1,-0.1 0.2,-0.1 0.3,-0.2 0.1,-0.1 0.2,-0.3 0.2,-0.5 0,-0.2 -0.1,-0.4 -0.2,-0.5 -0.1,-0.2 -0.4,-0.2 -0.7,-0.2 h -4 c -0.1,0 -0.2,0.1 -0.2,0.2 v 1.3 z m -4.2,5.2 h -2.4 v -8.4 c 0,-0.4 0.2,-0.6 0.6,-0.6 h 6.4 c 0.6,0 1,0.1 1.4,0.2 0.4,0.2 0.7,0.4 0.9,0.6 0.2,0.2 0.4,0.5 0.5,0.8 0.1,0.3 0.2,0.6 0.2,1 0,0.4 -0.1,0.7 -0.2,1 -0.1,0.3 -0.3,0.6 -0.7,0.8 0.3,0.2 0.5,0.4 0.7,0.7 0.1,0.3 0.2,0.7 0.2,1.2 v 1.8 c 0,0.2 0,0.4 0,0.5 0,0.1 0,0.2 0,0.4 h -2.4 c 0,-0.2 0,-0.4 0,-0.6 v -1.8 c 0,-0.3 -0.1,-0.5 -0.2,-0.6 -0.2,-0.1 -0.4,-0.2 -0.8,-0.2 h -4.2 z"
   id="path9"
   style="fill:none" />
	<path
   class="st0"
   d="m 15.7,65.5 c -0.1,0 -0.1,0 0,0 0,-0.1 -0.1,-0.1 -0.1,-0.2 h 1.1 c 0,0 0,0.1 0,0.1 l 1.1,2.5 c 0,0 0,0.1 0.1,0.1 0,0 0.1,0 0.1,0 0,0 0.1,0 0.1,0 0,0 0,0 0.1,-0.1 l 1.1,-2.5 c 0,0 0,-0.1 0,-0.1 h 1.1 c 0,0 0,0.1 0,0.1 0,0 0,0.1 0,0.1 L 19,68.4 c -0.1,0.2 -0.2,0.4 -0.4,0.5 C 18.5,69 18.2,69 18,69 17.5,69 17.2,68.8 17,68.3 Z"
   id="path10"
   style="fill:none" />
	<path
   class="st0"
   d="m 23.9,67.5 c 0,0.1 -0.1,0.2 -0.2,0.3 -0.1,0.1 -0.2,0.2 -0.3,0.2 -0.1,0 -0.2,0 -0.4,0 h -0.8 c -0.2,0 -0.3,0 -0.4,-0.1 -0.1,0 -0.2,-0.1 -0.3,-0.2 -0.1,-0.1 -0.1,-0.2 -0.2,-0.3 0,-0.1 -0.1,-0.2 -0.1,-0.3 0,-0.1 0,-0.2 0.1,-0.3 0,-0.1 0.1,-0.2 0.2,-0.3 0.1,-0.1 0.2,-0.1 0.3,-0.2 0.1,0 0.2,-0.1 0.4,-0.1 H 23 c 0.2,0 0.3,0 0.4,0.1 0.1,0 0.2,0.1 0.3,0.2 0.1,0.1 0.1,0.2 0.2,0.3 0,0.1 0.1,0.2 0.1,0.3 0,0.2 -0.1,0.3 -0.1,0.4 m 0.9,-1.1 C 24.7,66.2 24.6,66 24.4,65.8 24.2,65.7 24.1,65.5 23.8,65.5 23.6,65.4 23.3,65.4 23,65.4 h -0.8 c -0.3,0 -0.5,0 -0.8,0.1 -0.2,0.1 -0.4,0.2 -0.6,0.3 -0.2,0.2 -0.3,0.4 -0.4,0.6 -0.1,0.2 -0.2,0.5 -0.2,0.7 0,0.2 0,0.5 0.1,0.7 0.1,0.2 0.2,0.4 0.3,0.5 0.2,0.2 0.4,0.3 0.6,0.4 0.2,0.1 0.5,0.2 0.8,0.2 h 1 c 0.3,0 0.6,-0.1 0.8,-0.2 0.2,-0.1 0.4,-0.2 0.6,-0.4 0.1,-0.2 0.3,-0.3 0.3,-0.5 0.1,-0.2 0.1,-0.4 0.1,-0.7 0.1,-0.2 0.1,-0.5 0,-0.7"
   id="path11"
   style="fill:none" />
	<path
   class="st0"
   d="m 24.8,65.5 c 0,0 -0.1,-0.1 0,0 -0.1,-0.1 -0.1,-0.1 -0.1,-0.1 h 1.2 c 0,0 0,0 0,0.1 0,0 0,0 0.1,0.1 l 0.9,1 c 0,0 0,0 0.1,0 0,0 0.1,0 0.1,0 l 0.9,-1 c 0,0 0.1,-0.1 0.1,-0.1 h 1.2 c 0,0 0,0 0,0.1 0,0.1 0,0 -0.1,0.1 l -1.7,1.9 v 1.6 h -1 v -1.7 z"
   id="path12"
   style="fill:none" />
	<path
   class="st0"
   d="m 30,67.6 0.5,-1.3 c 0,0 0,-0.1 0.1,-0.1 0,0 0.1,0 0.1,0 0,0 0.1,0 0.1,0 0,0 0.1,0 0.1,0.1 l 0.5,1.3 z m 3.1,1.3 c 0,-0.1 -0.1,-0.1 0,0 L 31.8,66 c -0.1,-0.2 -0.2,-0.4 -0.4,-0.5 -0.2,-0.1 -0.4,-0.2 -0.6,-0.2 -0.3,0 -0.5,0.1 -0.6,0.2 -0.2,0.1 -0.3,0.3 -0.4,0.5 l -1.3,2.8 c 0,0 0,0.1 0,0.1 0,0 0,0.1 0,0.1 h 1.1 c 0,0 0,0 0,-0.1 0,0 0,0 0,-0.1 l 0.2,-0.4 h 2.1 l 0.2,0.4 c 0,0 0,0 0,0.1 0,0 0,0 0,0.1 l 1,-0.1 c 0,0 0,0 0,0"
   id="path13"
   style="fill:none" />
	<path
   class="st0"
   d="m 35,68.9 c -0.3,0 -0.6,-0.1 -0.8,-0.2 -0.2,-0.1 -0.4,-0.2 -0.6,-0.4 -0.1,-0.2 -0.3,-0.3 -0.3,-0.5 -0.1,-0.2 -0.1,-0.4 -0.1,-0.7 0,-0.3 0.1,-0.5 0.2,-0.7 0.1,-0.2 0.2,-0.4 0.4,-0.6 0.2,-0.1 0.3,-0.3 0.6,-0.3 0.2,-0.1 0.5,-0.1 0.8,-0.1 h 1.9 v 0.9 H 35 c -0.2,0 -0.3,0 -0.4,0.1 -0.1,0 -0.2,0.1 -0.3,0.2 -0.1,0.1 -0.1,0.2 -0.2,0.3 0,0.1 -0.1,0.2 -0.1,0.3 0,0.1 0,0.2 0.1,0.3 0,0.1 0.1,0.2 0.2,0.3 0.1,0.1 0.2,0.2 0.3,0.2 0.1,0 0.2,0 0.4,0 h 0.9 c 0,0 0.1,0 0.1,-0.1 v -1 h 1 v 1.7 c 0,0.2 -0.1,0.2 -0.2,0.2 H 35 Z"
   id="path14"
   style="fill:none" />
	<path
   class="st0"
   d="m 41.4,65.4 v 0.9 h -2.7 c -0.1,0 -0.1,0 -0.1,0.1 v 0.4 h 2.8 v 0.7 h -2.8 v 0.4 c 0,0.1 0,0.1 0.1,0.1 h 2.7 v 0.9 h -3.3 c -0.3,0 -0.5,-0.2 -0.5,-0.5 v -2.6 c 0,-0.3 0.2,-0.5 0.5,-0.5 h 3.3 z"
   id="path15"
   style="fill:none" />
	<path
   class="st0"
   d="m 45.7,66.3 h -2.6 c -0.1,0 -0.1,0 -0.1,0 0,0 -0.1,0 -0.1,0 0,0 -0.1,0.1 -0.1,0.2 0,0.1 0,0.1 0.1,0.2 0,0 0,0 0.1,0 0,0 0.1,0 0.1,0 h 1.6 c 0.2,0 0.4,0 0.5,0.1 0.1,0.1 0.3,0.1 0.4,0.2 0.1,0.1 0.2,0.2 0.2,0.3 0.1,0.1 0.1,0.3 0.1,0.4 0,0.1 0,0.3 -0.1,0.4 0,0.1 -0.1,0.2 -0.2,0.3 -0.1,0.1 -0.2,0.2 -0.4,0.3 -0.1,0.1 -0.3,0.1 -0.5,0.1 H 42 V 68 h 2.6 c 0.1,0 0.1,0 0.2,0 0,0 0.1,0 0.1,-0.1 0,0 0.1,-0.1 0.1,-0.2 0,-0.1 0,-0.1 -0.1,-0.2 0,0 -0.1,0 -0.1,-0.1 0,0 -0.1,0 -0.2,0 h -1.5 c -0.2,0 -0.4,0 -0.6,-0.1 -0.1,-0.1 -0.3,-0.1 -0.4,-0.2 -0.1,-0.1 -0.2,-0.2 -0.2,-0.3 -0.1,-0.1 -0.1,-0.3 -0.1,-0.4 0,-0.1 0,-0.3 0.1,-0.4 0.1,-0.1 0.1,-0.2 0.2,-0.3 0.1,-0.1 0.2,-0.2 0.4,-0.2 0.1,-0.1 0.3,-0.1 0.6,-0.1 h 2.6 z"
   id="path16"
   style="fill:none" />
</g>
</svg>
