<?xml version="1.0" encoding="UTF-8" standalone="no"?>
<!-- Created with Inkscape (http://www.inkscape.org/) -->

<svg
   width="600mm"
   height="86mm"
   viewBox="0 0 600 86"
   version="1.1"
   id="svg1"
   inkscape:version="1.3.2 (091e20e, 2023-11-25)"
   sodipodi:docname="weaver.svg"
   xmlns:inkscape="http://www.inkscape.org/namespaces/inkscape"
   xmlns:sodipodi="http://sodipodi.sourceforge.net/DTD/sodipodi-0.dtd"
   xmlns="http://www.w3.org/2000/svg"
   xmlns:svg="http://www.w3.org/2000/svg">
  <sodipodi:namedview
     id="namedview1"
     pagecolor="#ffffff"
     bordercolor="#000000"
     borderopacity="0.25"
     inkscape:showpageshadow="2"
     inkscape:pageopacity="0.0"
     inkscape:pagecheckerboard="0"
     inkscape:deskcolor="#d1d1d1"
     inkscape:document-units="px"
     inkscape:zoom="0.4204826"
     inkscape:cx="1353.207"
     inkscape:cy="522.01922"
     inkscape:window-width="1600"
     inkscape:window-height="942"
     inkscape:window-x="1966"
     inkscape:window-y="758"
     inkscape:window-maximized="0"
     inkscape:current-layer="layer1" />
  <defs
     id="defs1">
    <clipPath
       clipPathUnits="userSpaceOnUse"
       id="clipPath15">
      <path
         d="M 0,96.746 H 1700.786 V 5102.361 H 0 Z"
         transform="translate(-1803.9264,-4715.815)"
         id="path15" />
    </clipPath>
  </defs>
  <g
     inkscape:label="Calque 1"
     inkscape:groupmode="layer"
     id="layer1"
     transform="translate(195.52707,-106.36251)">
    <path
       id="path14"
       d="M 0,87.399577 C -1.7836648,144.47685 0,96.513 0,96.513 h -434.122 c -121.049,0 -180.558,15.915 -163.885,43.969 13.972,23.511 23.543,47.403 -22.719,47.403 -61.053,0 -133.216,-27.867 -167.886,-57.823 0,0 75.527,84.904 -24.858,84.904 -78.232,0 -161.594,-43.025 -161.594,-43.025 0,0 47.74,67.329 -40.389,67.329 -86.501,0 -291.114,-142.757 -496.93,-142.757 h -378.962 l -14.2693,-12.680752 z"
       style="fill:#ffffff;fill-opacity:1;fill-rule:nonzero;stroke:none"
       transform="matrix(0.35277776,0,0,-0.35277776,441.48728,222.2335)"
       clip-path="url(#clipPath15)"
       sodipodi:nodetypes="ccscscscssccc" />
  </g>
</svg>
